<?xml version="1.0" encoding="utf-8"?>
<!-- Generator: Adobe Illustrator 26.2.1, SVG Export Plug-In . SVG Version: 6.00 Build 0)  -->
<!DOCTYPE svg PUBLIC "-//W3C//DTD SVG 1.1//EN" "http://www.w3.org/Graphics/SVG/1.1/DTD/svg11.dtd" [
	<!ENTITY ns_extend "http://ns.adobe.com/Extensibility/1.0/">
	<!ENTITY ns_ai "http://ns.adobe.com/AdobeIllustrator/10.0/">
	<!ENTITY ns_graphs "http://ns.adobe.com/Graphs/1.0/">
	<!ENTITY ns_vars "http://ns.adobe.com/Variables/1.0/">
	<!ENTITY ns_imrep "http://ns.adobe.com/ImageReplacement/1.0/">
	<!ENTITY ns_sfw "http://ns.adobe.com/SaveForWeb/1.0/">
	<!ENTITY ns_custom "http://ns.adobe.com/GenericCustomNamespace/1.0/">
	<!ENTITY ns_adobe_xpath "http://ns.adobe.com/XPath/1.0/">
]>
<svg version="1.1" id="Layer_1" xmlns:x="&ns_extend;" xmlns:i="&ns_ai;" xmlns:graph="&ns_graphs;"
	 xmlns="http://www.w3.org/2000/svg" xmlns:xlink="http://www.w3.org/1999/xlink" x="0px" y="0px" viewBox="0 0 1920 1080"
	 style="enable-background:new 0 0 1920 1080;" xml:space="preserve">
<style type="text/css">
	.st0{fill:#DFDFDF;}
	.st1{enable-background:new    ;}
</style>
<metadata>
	<sfw  xmlns="&ns_sfw;">
		<slices></slices>
		<sliceSourceBounds  bottomLeftOrigin="true" height="781.1" width="984.4" x="402.8" y="-870.4"></sliceSourceBounds>
	</sfw>
</metadata>
<g>
	<g>
		<g>
			<path d="M784.1,540c-1,0.1-1.8-0.1-2.6-0.8c-0.7-0.7-1.1-1.5-1.1-2.6l0.1-49.5c0-1,0.4-2,1.1-2.9c0.7-0.9,1.6-1.4,2.6-1.5
				l47.9-6.7c1-0.1,1.8,0.1,2.5,0.8c0.7,0.7,1,1.6,1,2.6l-0.1,49.5c0,1-0.3,2-1,2.9c-0.7,0.9-1.5,1.4-2.5,1.5L784.1,540z"/>
		</g>
		<g>
			<path class="st0" d="M1061.7,436.9c1.7,2.9,2.6,6.1,2.6,9.8l-0.1,70.9l-68,9.6c-3.5,0.5-6.8,0-9.7-1.5c-2.9-1.5-5.2-3.6-6.9-6.5
				c-1.7-2.9-2.6-6.1-2.6-9.8l0.1-33.7l71.1-10l0-16.2c0-1-0.3-1.9-1-2.6c-0.7-0.7-1.5-1-2.5-0.8l-67.6,9.5l0-17l68-9.6
				c3.6-0.5,6.8,0,9.7,1.5C1057.7,431.9,1060,434.1,1061.7,436.9z M1048.1,502.9l0-21.3l-55.2,7.8l0,17.3c0,1,0.4,1.9,1.1,2.6
				c0.7,0.7,1.6,1,2.6,0.8L1048.1,502.9"/>
		</g>
		<g>
			<path class="st0" d="M625.3,682.8c3.5-0.5,6.8,0,9.7,1.5c2.9,1.5,5.2,3.7,6.9,6.5c1.7,2.9,2.6,6.1,2.6,9.8l0,2.4l-16.1,2.3l0-1.9
				c0-1-0.3-1.9-1-2.6c-0.7-0.7-1.5-1-2.5-0.8l-47.9,6.7c-1,0.1-1.9,0.7-2.6,1.5c-0.7,0.9-1.1,1.9-1.1,2.9l0,12.3
				c0,1.1,0.4,1.9,1.1,2.6c0.7,0.7,1.6,1,2.6,0.8l48.4-6.8c3.5-0.5,6.8,0,9.7,1.4c2.9,1.4,5.2,3.6,6.9,6.4c1.7,2.9,2.6,6.2,2.6,10
				l0,13.2c0,3.7-0.9,7.2-2.6,10.5c-1.7,3.3-4,6.2-7,8.5c-2.9,2.3-6.1,3.7-9.7,4.2l-48.8,6.9c-3.4,0.5-6.6,0-9.5-1.5
				c-2.9-1.5-5.2-3.6-7-6.5c-1.8-2.8-2.6-6.1-2.6-9.8l0-2.4l16-2.2l0,1.9c0,1,0.4,1.9,1.1,2.6c0.7,0.7,1.6,1,2.6,0.8l47.9-6.7
				c1-0.1,1.8-0.6,2.5-1.5s1-1.9,1-2.9l0-12.3c0-1-0.3-1.9-1-2.6c-0.7-0.7-1.5-1-2.5-0.8l-48.4,6.8c-3.4,0.5-6.6,0-9.5-1.4
				c-2.9-1.4-5.2-3.6-7-6.4c-1.8-2.8-2.6-6.2-2.6-9.9l0-13.2c0-3.7,0.9-7.2,2.7-10.5c1.8-3.3,4.1-6.2,7-8.5c2.9-2.3,6.1-3.7,9.5-4.2
				L625.3,682.8z"/>
		</g>
		<g>
			<path class="st0" d="M822.9,655l0,17l-47.5,6.7c-1,0.1-1.9,0.7-2.6,1.5c-0.7,0.9-1.1,1.9-1.1,2.9l-0.1,70.4l-16,2.2l0.1-70.9
				c0-3.7,0.9-7.2,2.7-10.5c1.8-3.3,4.1-6.2,7-8.5c2.9-2.3,6.1-3.7,9.5-4.2L822.9,655z"/>
		</g>
		<g>
			<path class="st0" d="M914.1,652.5c1.7,2.9,2.6,6.1,2.6,9.8l-0.1,50.4c0,3.7-0.9,7.2-2.6,10.5c-1.7,3.3-4.1,6.2-7,8.5
				c-2.9,2.3-6.1,3.7-9.7,4.2l-52.1,7.3l-0.1,36.2l-16,2.2l0.2-127.6l68-9.6c3.5-0.5,6.8,0,9.7,1.5
				C910,647.5,912.4,649.7,914.1,652.5z M900.6,714.5l0.1-49.5c0-1-0.4-1.9-1.1-2.6c-0.7-0.7-1.6-1-2.6-0.8l-47.9,6.7
				c-1,0.1-1.9,0.7-2.6,1.5c-0.7,0.9-1.1,1.9-1.1,2.9l-0.1,49.5c0,1,0.4,1.9,1.1,2.6c0.7,0.7,1.6,1,2.6,0.8l47.9-6.7
				c1-0.1,1.8-0.6,2.6-1.5C900.2,716.5,900.6,715.6,900.6,714.5"/>
		</g>
		<g class="st1">
			<g>
				<path d="M1192.1,620.1c1-0.1,1.8,0.1,2.5,0.8c0.7,0.7,1,1.6,1,2.6l0,17.3l-55.2,7.8l0-17.3c0-1,0.4-2,1.1-2.9
					c0.7-0.9,1.6-1.4,2.6-1.6L1192.1,620.1z"/>
			</g>
			<g>
				<path class="st0" d="M1093.8,616.9c3.5-0.5,6.8,0,9.7,1.5c2.9,1.5,5.2,3.7,6.9,6.5c1.7,2.9,2.6,6.1,2.6,9.8l0,2.4l-16.1,2.3
					l0-1.9c0-1-0.3-1.9-1-2.6c-0.7-0.7-1.5-1-2.5-0.8l-47.9,6.7c-1,0.1-1.9,0.7-2.6,1.5c-0.7,0.9-1.1,1.9-1.1,2.9l0,12.3
					c0,1.1,0.4,1.9,1.1,2.6c0.7,0.7,1.6,1,2.6,0.8l48.4-6.8c3.5-0.5,6.8,0,9.7,1.4c2.9,1.4,5.2,3.6,6.9,6.4c1.7,2.9,2.6,6.2,2.6,10
					l0,13.2c0,3.7-0.9,7.2-2.6,10.5c-1.7,3.3-4.1,6.2-7,8.5c-2.9,2.3-6.1,3.7-9.7,4.2l-48.8,6.9c-3.5,0.5-6.6,0-9.5-1.5
					c-2.9-1.5-5.2-3.6-7-6.5c-1.8-2.8-2.6-6.1-2.6-9.8l0-2.4l16-2.2l0,1.9c0,1,0.4,1.9,1.1,2.6c0.7,0.7,1.6,1,2.6,0.8l47.9-6.7
					c1-0.1,1.8-0.6,2.5-1.5c0.7-0.9,1-1.9,1-2.9l0-12.3c0-1-0.3-1.9-1-2.6c-0.7-0.7-1.5-1-2.5-0.8l-48.4,6.8c-3.5,0.5-6.6,0-9.5-1.4
					c-2.9-1.4-5.2-3.6-7-6.4c-1.8-2.8-2.6-6.2-2.6-9.9l0-13.2c0-3.7,0.9-7.2,2.7-10.5c1.8-3.3,4.1-6.2,7-8.5
					c2.9-2.3,6.1-3.7,9.5-4.2L1093.8,616.9z"/>
			</g>
			<g>
				<polygon class="st0" points="997.4,721.9 997.6,630.5 1013.5,628.2 1013.4,719.6 				"/>
			</g>
			<g>
				<polygon class="st0" points="997.6,600.5 1013.6,598.3 1013.6,615.3 997.6,617.6 				"/>
			</g>
			<g>
				<path class="st0" d="M1287.9,254.1l-71.3,10l0,16.2c0,1,0.4,1.9,1.1,2.6c0.7,0.7,1.6,1,2.6,0.8l67.6-9.5l0,17l-68,9.6
					c-3.5,0.5-6.6,0-9.5-1.5c-2.9-1.5-5.2-3.6-7-6.5c-1.8-2.9-2.6-6.1-2.6-9.8l0.1-50.4c0-3.7,0.9-7.2,2.7-10.5
					c1.8-3.3,4.1-6.2,7-8.5c2.9-2.3,6.1-3.7,9.5-4.2l48.8-6.9c3.5-0.5,6.8,0,9.7,1.5c2.9,1.5,5.2,3.7,6.9,6.5
					c1.7,2.9,2.6,6.1,2.6,9.8L1287.9,254.1z M1216.7,230.9l0,17.3l55.2-7.8l0-17.3c0-1-0.3-1.9-1-2.6c-0.7-0.7-1.5-1-2.5-0.8
					l-47.9,6.7c-1,0.1-1.9,0.7-2.6,1.5C1217.1,228.9,1216.7,229.9,1216.7,230.9"/>
			</g>
			<g>
				<path d="M992.9,506.7l0-17.3l55.1-7.8l0,21.3l-51.5,7.2c-1,0.1-1.8-0.1-2.6-0.8C993.3,508.6,992.9,507.7,992.9,506.7z"/>
			</g>
			<g>
				<path class="st0" d="M1115.4,278.4l-71.3,10l0,16.2c0,1,0.4,1.9,1.1,2.6c0.7,0.7,1.6,1,2.6,0.8l67.6-9.5l0,17l-68,9.6
					c-3.5,0.5-6.6,0-9.5-1.5c-2.9-1.5-5.2-3.6-7-6.5c-1.8-2.9-2.6-6.1-2.6-9.8l0.1-50.4c0-3.7,0.9-7.2,2.7-10.5
					c1.8-3.3,4.1-6.2,7-8.5c2.9-2.3,6.1-3.7,9.5-4.2l48.8-6.9c3.5-0.5,6.8,0,9.7,1.5c2.9,1.5,5.2,3.7,6.9,6.5
					c1.7,2.9,2.6,6.1,2.6,9.8L1115.4,278.4z M1044.2,255.2l0,17.3l55.2-7.8l0-17.3c0-1-0.3-1.9-1-2.6c-0.7-0.7-1.5-1-2.5-0.8
					l-47.9,6.7c-1,0.1-1.9,0.7-2.6,1.5C1044.5,253.1,1044.2,254.1,1044.2,255.2"/>
			</g>
			<g>
				<path d="M1095.8,244c1-0.1,1.8,0.1,2.5,0.8c0.7,0.7,1,1.6,1,2.6l0,17.3l-55.2,7.8l0-17.3c0-1,0.4-2,1.1-2.9
					c0.7-0.9,1.6-1.4,2.6-1.5L1095.8,244z"/>
			</g>
			<g>
				<polygon class="st0" points="1015.4,216.2 1015.2,329.6 999.1,331.9 999.2,283.7 922.3,294.5 922.2,342.7 906.2,345 
					906.4,231.5 922.4,229.3 922.3,277.5 999.2,266.7 999.3,218.5 				"/>
			</g>
			<g>
				<path class="st0" d="M849.2,466.8c1.7,2.9,2.6,6.1,2.6,9.8l-0.1,50.4c0,3.7-0.9,7.2-2.6,10.5c-1.7,3.3-4,6.2-7,8.5
					c-2.9,2.3-6.1,3.7-9.7,4.2l-48.8,6.9c-3.5,0.5-6.6,0-9.5-1.5c-2.9-1.5-5.2-3.6-7-6.5c-1.8-2.9-2.6-6.1-2.6-9.8l0.1-50.4
					c0-3.7,0.9-7.2,2.7-10.5c1.8-3.3,4.1-6.2,7-8.5c2.9-2.3,6.1-3.7,9.5-4.2l48.8-6.9c3.5-0.5,6.8,0,9.7,1.5
					C845.2,461.8,847.5,463.9,849.2,466.8z M835.6,528.8l0.1-49.5c0-1-0.3-1.9-1-2.6c-0.7-0.7-1.5-1-2.5-0.8l-47.9,6.7
					c-1,0.1-1.9,0.7-2.6,1.5c-0.7,0.9-1.1,1.9-1.1,2.9l-0.1,49.5c0,1,0.4,1.9,1.1,2.6c0.7,0.7,1.6,1,2.6,0.8l47.9-6.7
					c1-0.1,1.8-0.6,2.5-1.5C835.2,530.8,835.6,529.8,835.6,528.8"/>
			</g>
			<g>
				<path class="st0" d="M743.5,666.2l-0.1,70.9c0,3.7-0.9,7.2-2.6,10.5c-1.7,3.3-4.1,6.2-7,8.5c-2.9,2.3-6.1,3.7-9.7,4.2l-48.8,6.9
					c-3.5,0.5-6.8,0-9.7-1.5c-2.9-1.5-5.2-3.6-6.9-6.5c-1.7-2.9-2.6-6.1-2.6-9.8l0.1-70.9l16-2.2l-0.1,70.4c0,1,0.4,1.9,1.1,2.6
					c0.7,0.7,1.6,1,2.6,0.8l47.9-6.7c1-0.1,1.8-0.6,2.6-1.5c0.7-0.9,1.1-1.9,1.1-2.9l0.1-70.4L743.5,666.2z"/>
			</g>
			<g>
				<path class="st0" d="M757.3,439.5l0,17l-31.5,4.4c-1,0.1-1.9,0.7-2.6,1.5s-1.1,1.9-1.1,2.9l0,9l35.2-4.9l0,17l-35.2,4.9
					l-0.1,74.4l-16,2.2l0.2-100.8c0-3.8,0.9-7.3,2.6-10.7c1.7-3.3,4.1-6.1,7-8.4c2.9-2.2,6.1-3.6,9.7-4.1L757.3,439.5z"/>
			</g>
			<g>
				<polygon class="st0" points="789.8,240 789.7,307.2 808.9,304.5 841,262.8 859.4,260.2 859.4,263.3 823.1,311 859.2,348.4 
					859.2,351.6 840.9,354.1 808.9,321.5 789.6,324.2 789.6,361.4 773.6,363.6 773.8,242.3 				"/>
			</g>
			<g>
				<polygon class="st0" points="644.8,381.7 645,290.3 660.9,288.1 660.8,379.4 				"/>
			</g>
			<g>
				<polygon class="st0" points="645,260.4 661,258.1 661,275.2 645,277.4 				"/>
			</g>
			<g>
				<path d="M404,227.5l983.2-138.2l-1.2,642.9L402.8,870.4L404,227.5z M906.4,231.5L906.2,345l16-2.2l0.1-48.2l76.9-10.8l-0.1,48.2
					l16.1-2.3l0.2-113.4l-16.1,2.3l-0.1,48.2l-76.9,10.8l0.1-48.2L906.4,231.5 M493,400.3c2.9,1.4,6.1,1.9,9.7,1.4l86.9-12.2l0-17
					L505,384.3c-1.6,0.2-2.9-0.2-3.9-1.1c-1-1-1.5-2.3-1.5-4l0.1-67.7c0-1.7,0.5-3.1,1.6-4.4c1-1.3,2.3-2,3.9-2.2l84.7-11.9l0-17
					l-86.9,12.2c-3.5,0.5-6.8,1.9-9.7,4.1c-2.9,2.3-5.2,5-7,8.4c-1.7,3.3-2.6,6.9-2.6,10.7l-0.1,72.5c0,3.8,0.9,7.1,2.6,10
					C487.8,396.7,490.1,398.8,493,400.3 M916.6,712.7l0.1-50.4c0-3.7-0.9-6.9-2.6-9.8c-1.7-2.9-4-5-6.9-6.5c-2.9-1.5-6.1-2-9.7-1.5
					l-68,9.6l-0.2,127.6l16-2.2l0.1-36.2l52.1-7.3c3.5-0.5,6.8-1.9,9.7-4.2c2.9-2.3,5.2-5.1,7-8.5
					C915.7,719.9,916.5,716.4,916.6,712.7 M773.8,242.3l-0.2,121.3l16-2.2l0.1-37.2l19.2-2.7l32,32.7l18.3-2.6l0-3.1L823.1,311
					l36.3-47.6l0-3.2l-18.3,2.6l-32.2,41.7l-19.2,2.7l0.1-67.1L773.8,242.3 M1211.7,654.6l0.1-33.7c0-3.7-0.9-6.9-2.6-9.8
					c-1.7-2.9-4-5-6.9-6.5c-2.9-1.5-6.1-2-9.7-1.5l-48.8,6.9c-3.5,0.5-6.6,1.9-9.5,4.2c-2.9,2.3-5.3,5.1-7,8.5
					c-1.8,3.3-2.7,6.9-2.7,10.5l-0.1,50.4c0,3.7,0.9,7,2.6,9.8c1.8,2.8,4.1,5,7,6.5c2.9,1.5,6.1,2,9.5,1.5l68-9.6l0-17l-67.6,9.5
					c-1,0.1-1.8-0.1-2.6-0.8c-0.7-0.7-1.1-1.6-1.1-2.6l0-16.2L1211.7,654.6 M986.4,525.7c2.9,1.5,6.1,2,9.7,1.5l68-9.6l0.1-70.9
					c0-3.7-0.9-6.9-2.6-9.8c-1.7-2.9-4-5-6.9-6.5c-2.9-1.5-6.1-2-9.7-1.5l-68,9.6l0,17l67.6-9.5c1-0.1,1.8,0.1,2.5,0.8
					c0.7,0.7,1,1.6,1,2.6l0,16.2l-71.1,10l-0.1,33.7c0,3.7,0.9,6.9,2.6,9.8C981.2,522.1,983.5,524.2,986.4,525.7 M1115.4,278.4
					l0.1-33.7c0-3.7-0.9-6.9-2.6-9.8c-1.7-2.8-4-5-6.9-6.5c-2.9-1.5-6.1-2-9.7-1.5l-48.8,6.9c-3.5,0.5-6.6,1.9-9.5,4.2
					c-2.9,2.3-5.3,5.1-7,8.5c-1.8,3.3-2.7,6.9-2.7,10.5l-0.1,50.4c0,3.7,0.9,6.9,2.6,9.8c1.8,2.8,4.1,5,7,6.5c2.9,1.5,6.1,2,9.5,1.5
					l68-9.6l0-17l-67.6,9.5c-1,0.1-1.8-0.1-2.6-0.8c-0.7-0.7-1.1-1.6-1.1-2.6l0-16.2L1115.4,278.4 M673.6,306.8l-0.1,50.4
					c0,3.7,0.9,6.9,2.6,9.8c1.8,2.8,4.1,5,7,6.5c2.9,1.5,6.1,2,9.5,1.5l68-9.6l0-17l-67.6,9.5c-1,0.1-1.8-0.1-2.6-0.8
					c-0.7-0.7-1.1-1.6-1.1-2.6l0.1-49.5c0-1,0.4-2,1.1-2.9c0.7-0.9,1.6-1.4,2.6-1.5l67.3-9.5l0-17l-67.7,9.5
					c-3.5,0.5-6.6,1.9-9.5,4.2c-2.9,2.3-5.3,5.1-7,8.5C674.5,299.6,673.6,303.1,673.6,306.8 M1287.9,254.1l0.1-33.7
					c0-3.7-0.9-6.9-2.6-9.8c-1.7-2.8-4-5-6.9-6.5c-2.9-1.5-6.1-2-9.7-1.5l-48.8,6.9c-3.4,0.5-6.6,1.9-9.5,4.2
					c-2.9,2.3-5.3,5.1-7,8.5c-1.8,3.3-2.7,6.9-2.7,10.5l-0.1,50.4c0,3.7,0.9,6.9,2.6,9.8c1.8,2.8,4.1,5,7,6.5c2.9,1.5,6.1,2,9.5,1.5
					l68-9.6l0-17l-67.6,9.5c-1,0.1-1.8-0.1-2.6-0.8c-0.7-0.7-1.1-1.6-1.1-2.6l0-16.2L1287.9,254.1 M743.4,737.1l0.1-70.9l-16,2.2
					l-0.1,70.4c0,1-0.4,2-1.1,2.9c-0.7,0.9-1.6,1.4-2.6,1.5l-47.9,6.7c-1,0.1-1.8-0.1-2.6-0.8c-0.7-0.7-1.1-1.6-1.1-2.6l0.1-70.4
					l-16,2.2l-0.1,70.9c0,3.7,0.9,7,2.6,9.8c1.7,2.9,4,5,6.9,6.5c2.9,1.5,6.1,2,9.7,1.5l48.8-6.9c3.5-0.5,6.8-1.9,9.7-4.2
					c2.9-2.3,5.2-5.1,7-8.5C742.5,744.3,743.4,740.7,743.4,737.1 M644.4,702.9l0-2.4c0-3.7-0.8-6.9-2.6-9.8c-1.7-2.9-4-5-6.9-6.5
					c-2.9-1.5-6.1-2-9.7-1.5l-48.8,6.9c-3.4,0.5-6.6,1.9-9.5,4.2c-2.9,2.3-5.3,5.1-7,8.5c-1.8,3.3-2.7,6.9-2.7,10.5l0,13.2
					c0,3.8,0.9,7.1,2.6,9.9c1.8,2.9,4.1,5,7,6.4c2.9,1.4,6.1,1.9,9.5,1.4l48.4-6.8c1-0.1,1.8,0.1,2.5,0.8c0.7,0.7,1,1.6,1,2.6
					l0,12.3c0,1-0.3,2-1,2.9c-0.7,0.9-1.5,1.4-2.5,1.5l-47.9,6.7c-1,0.1-1.8-0.1-2.6-0.8c-0.7-0.7-1.1-1.6-1.1-2.6l0-1.9l-16,2.2
					l0,2.4c0,3.7,0.9,7,2.6,9.8c1.8,2.8,4.1,5,7,6.5c2.9,1.5,6.1,2,9.5,1.5l48.8-6.9c3.5-0.5,6.8-1.9,9.7-4.2c2.9-2.3,5.2-5.1,7-8.5
					c1.7-3.3,2.6-6.8,2.6-10.5l0-13.2c0-3.8-0.8-7.1-2.6-10c-1.7-2.9-4-5-6.9-6.4c-2.9-1.4-6.1-1.9-9.7-1.4l-48.4,6.8
					c-1,0.1-1.8-0.1-2.6-0.8c-0.7-0.7-1.1-1.5-1.1-2.6l0-12.3c0-1,0.4-2,1.1-2.9c0.7-0.9,1.6-1.4,2.6-1.6l47.9-6.7
					c1-0.1,1.8,0.1,2.5,0.8c0.7,0.7,1,1.6,1,2.6l0,1.9L644.4,702.9 M1113,637.1l0-2.4c0-3.7-0.8-6.9-2.6-9.8c-1.7-2.9-4-5-6.9-6.5
					c-2.9-1.5-6.1-2-9.7-1.5l-48.8,6.9c-3.5,0.5-6.6,1.9-9.5,4.2c-2.9,2.3-5.3,5.1-7,8.5c-1.8,3.3-2.7,6.9-2.7,10.5l0,13.2
					c0,3.8,0.9,7.1,2.6,9.9c1.8,2.9,4.1,5,7,6.4c2.9,1.4,6.1,1.9,9.5,1.4l48.4-6.8c1-0.1,1.8,0.1,2.5,0.8c0.7,0.7,1,1.6,1,2.6
					l0,12.3c0,1-0.3,2-1,2.9c-0.7,0.9-1.5,1.4-2.5,1.5l-47.9,6.7c-1,0.1-1.9-0.1-2.6-0.8c-0.7-0.7-1.1-1.6-1.1-2.6l0-1.9l-16,2.2
					l0,2.4c0,3.7,0.9,7,2.6,9.8c1.8,2.8,4.1,5,7,6.5c2.9,1.5,6.1,2,9.5,1.5l48.8-6.9c3.5-0.5,6.8-1.9,9.7-4.2c2.9-2.3,5.2-5.1,7-8.5
					c1.7-3.3,2.6-6.8,2.6-10.5l0-13.2c0-3.8-0.8-7.1-2.6-10c-1.7-2.9-4-5-6.9-6.4c-2.9-1.4-6.1-1.9-9.7-1.4l-48.4,6.8
					c-1,0.1-1.9-0.1-2.6-0.8c-0.7-0.7-1.1-1.5-1.1-2.6l0-12.3c0-1,0.4-2,1.1-2.9c0.7-0.9,1.6-1.4,2.6-1.6l47.9-6.7
					c1-0.1,1.8,0.1,2.5,0.8s1,1.6,1,2.6l0,1.9L1113,637.1 M764.6,488.8l-0.1,50.4c0,3.7,0.9,6.9,2.6,9.8c1.8,2.8,4.1,5,7,6.5
					c2.9,1.5,6.1,2,9.5,1.5l48.8-6.9c3.5-0.5,6.8-1.9,9.7-4.2c2.9-2.3,5.2-5.1,7-8.5c1.7-3.3,2.6-6.8,2.6-10.5l0.1-50.4
					c0-3.7-0.9-6.9-2.6-9.8c-1.7-2.9-4-5-6.9-6.5c-2.9-1.5-6.1-2-9.7-1.5l-48.8,6.9c-3.5,0.5-6.6,1.9-9.5,4.2
					c-2.9,2.3-5.3,5.1-7,8.5C765.5,481.7,764.6,485.2,764.6,488.8 M757.2,469.4l-35.2,4.9l0-9c0-1.1,0.4-2,1.1-2.9
					c0.7-0.9,1.6-1.4,2.6-1.5l31.5-4.4l0-17l-31.9,4.5c-3.6,0.5-6.8,1.9-9.7,4.1c-2.9,2.2-5.2,5-7,8.4c-1.7,3.3-2.6,6.9-2.6,10.7
					L705.9,568l16-2.2l0.1-74.4l35.2-4.9L757.2,469.4 M863.9,474.9l-0.1,70.9l16-2.2l0.1-70.4c0-1,0.4-2,1.1-2.9
					c0.7-0.9,1.6-1.4,2.6-1.5l47.5-6.7l0-17l-47.9,6.7c-3.5,0.5-6.6,1.9-9.5,4.2c-2.9,2.3-5.3,5.1-7,8.5
					C864.8,467.7,863.9,471.2,863.9,474.9 M991.3,648.4l0-17l-47.9,6.7c-3.4,0.5-6.6,1.9-9.5,4.2c-2.9,2.3-5.3,5.1-7,8.5
					c-1.8,3.3-2.7,6.9-2.7,10.5l-0.1,70.9l16-2.2l0.1-70.4c0-1,0.4-2,1.1-2.9c0.7-0.9,1.6-1.4,2.6-1.6L991.3,648.4 M822.9,672l0-17
					l-47.9,6.7c-3.5,0.5-6.6,1.9-9.5,4.2c-2.9,2.3-5.3,5.1-7,8.5c-1.8,3.3-2.7,6.9-2.7,10.5l-0.1,70.9l16-2.2l0.1-70.4
					c0-1,0.4-2,1.1-2.9c0.7-0.9,1.6-1.4,2.6-1.6L822.9,672 M1127.6,243l-0.1,70.9l16-2.2l0.1-70.4c0-1,0.4-2,1.1-2.9
					c0.7-0.9,1.6-1.4,2.6-1.5l47.5-6.7l0-17l-47.9,6.7c-3.5,0.5-6.6,1.9-9.5,4.2c-2.9,2.3-5.3,5.1-7,8.5
					C1128.5,235.8,1127.6,239.3,1127.6,243 M601.6,266.5l-0.2,100.8c0,3.7,0.9,6.9,2.6,9.8c1.8,2.8,4.1,5,7,6.5
					c2.9,1.5,6.1,2,9.5,1.5l16-2.2l0-17L621,368c-1,0.1-1.8-0.1-2.6-0.8c-0.7-0.7-1.1-1.6-1.1-2.6l0.2-100.4L601.6,266.5 M645,290.3
					l-0.2,91.4l16-2.2l0.2-91.4L645,290.3 M1013.4,719.6l0.2-91.4l-16,2.2l-0.2,91.4L1013.4,719.6 M1013.6,615.3l0-17l-16,2.2l0,17
					L1013.6,615.3 M645,260.4l0,17l16-2.2l0-17L645,260.4"/>
			</g>
			<g>
				<path d="M897,661.6c1-0.1,1.8,0.1,2.6,0.8c0.7,0.7,1.1,1.6,1.1,2.6l-0.1,49.5c0,1-0.4,2-1.1,2.9c-0.7,0.9-1.6,1.4-2.6,1.5
					l-47.9,6.7c-1,0.1-1.8-0.1-2.6-0.8c-0.7-0.7-1.1-1.6-1.1-2.6l0.1-49.5c0-1,0.4-2,1.1-2.9c0.7-0.9,1.6-1.4,2.6-1.6L897,661.6z"/>
			</g>
			<g>
				<path class="st0" d="M760.6,274.1l0,17l-67.3,9.5c-1,0.1-1.8,0.7-2.6,1.5c-0.7,0.9-1.1,1.9-1.1,2.9l-0.1,49.5
					c0,1,0.4,1.9,1.1,2.6c0.7,0.7,1.6,1,2.6,0.8l67.6-9.5l0,17l-68,9.6c-3.5,0.5-6.6,0-9.5-1.5c-2.9-1.5-5.2-3.6-7-6.5
					c-1.8-2.9-2.7-6.1-2.6-9.8l0.1-50.4c0-3.7,0.9-7.2,2.7-10.5c1.8-3.3,4.1-6.2,7-8.5c2.9-2.3,6.1-3.7,9.5-4.2L760.6,274.1z"/>
			</g>
			<g>
				<path class="st0" d="M617.5,264.3l-0.2,100.4c0,1,0.4,1.9,1.1,2.6c0.7,0.7,1.6,1,2.6,0.8l15.5-2.2l0,17l-16,2.2
					c-3.4,0.5-6.6,0-9.5-1.5c-2.9-1.5-5.2-3.6-7-6.5c-1.8-2.9-2.6-6.1-2.6-9.8l0.2-100.8L617.5,264.3z"/>
			</g>
			<g>
				<path class="st0" d="M589.9,276l0,17l-84.7,11.9c-1.6,0.2-2.9,1-3.9,2.2c-1,1.2-1.6,2.7-1.6,4.4l-0.1,67.7c0,1.7,0.5,3,1.5,4
					c1,1,2.3,1.3,3.9,1.1l84.7-11.9l0,17l-86.9,12.2c-3.5,0.5-6.8,0-9.7-1.4c-2.9-1.4-5.2-3.6-6.9-6.4c-1.7-2.9-2.6-6.2-2.6-10
					l0.1-72.5c0-3.8,0.9-7.3,2.6-10.7c1.7-3.3,4.1-6.1,7-8.4c2.9-2.2,6.1-3.6,9.7-4.1L589.9,276z"/>
			</g>
		</g>
		<g>
			<path d="M1268.3,219.7c1-0.1,1.8,0.1,2.5,0.8c0.7,0.7,1,1.6,1,2.6l0,17.3l-55.2,7.8l0-17.3c0-1,0.4-2,1.1-2.9
				c0.7-0.9,1.6-1.4,2.6-1.5L1268.3,219.7z"/>
		</g>
		<g>
			<path class="st0" d="M1194.7,213.1l0,17l-47.5,6.7c-1,0.1-1.9,0.7-2.6,1.5s-1.1,1.9-1.1,2.9l-0.1,70.4l-16,2.2l0.1-70.9
				c0-3.7,0.9-7.2,2.7-10.5c1.8-3.3,4.1-6.2,7-8.5c2.9-2.3,6.1-3.7,9.5-4.2L1194.7,213.1z"/>
		</g>
		<g>
			<path class="st0" d="M931.1,445l0,17l-47.5,6.7c-1,0.1-1.9,0.7-2.6,1.5c-0.7,0.9-1.1,1.9-1.1,2.9l-0.1,70.4l-16,2.2l0.1-70.9
				c0-3.7,0.9-7.2,2.7-10.5c1.8-3.3,4.1-6.2,7-8.5c2.9-2.3,6.1-3.7,9.5-4.2L931.1,445z"/>
		</g>
		<g>
			<path class="st0" d="M991.4,631.3l0,17l-47.5,6.7c-1,0.1-1.9,0.7-2.6,1.5c-0.7,0.9-1.1,1.9-1.1,2.9l-0.1,70.4l-16,2.2l0.1-70.9
				c0-3.7,0.9-7.2,2.7-10.5c1.8-3.3,4.1-6.2,7-8.5c2.9-2.3,6.1-3.7,9.5-4.2L991.4,631.3z"/>
		</g>
		<g>
			<path class="st0" d="M1211.7,654.6l-71.3,10l0,16.2c0,1,0.4,1.9,1.1,2.6c0.7,0.7,1.6,1,2.6,0.8l67.6-9.5l0,17l-68,9.6
				c-3.5,0.5-6.6,0-9.5-1.5c-2.9-1.5-5.2-3.6-7-6.5c-1.8-2.8-2.6-6.1-2.6-9.8l0.1-50.4c0-3.7,0.9-7.2,2.7-10.5
				c1.8-3.3,4.1-6.2,7-8.5c2.9-2.3,6.1-3.7,9.5-4.2l48.8-6.9c3.5-0.5,6.8,0,9.7,1.5c2.9,1.5,5.2,3.7,6.9,6.5
				c1.7,2.9,2.6,6.1,2.6,9.8L1211.7,654.6z M1140.5,631.3l0,17.3l55.2-7.8l0-17.3c0-1-0.3-1.9-1-2.6c-0.7-0.7-1.5-1-2.5-0.8
				l-47.9,6.7c-1,0.1-1.9,0.7-2.6,1.5C1140.9,629.3,1140.5,630.3,1140.5,631.3"/>
		</g>
	</g>
</g>
</svg>
