<?xml version="1.0" encoding="utf-8"?>
<!-- Generator: Adobe Illustrator 26.2.1, SVG Export Plug-In . SVG Version: 6.00 Build 0)  -->
<!DOCTYPE svg PUBLIC "-//W3C//DTD SVG 1.1//EN" "http://www.w3.org/Graphics/SVG/1.1/DTD/svg11.dtd" [
	<!ENTITY ns_extend "http://ns.adobe.com/Extensibility/1.0/">
	<!ENTITY ns_ai "http://ns.adobe.com/AdobeIllustrator/10.0/">
	<!ENTITY ns_graphs "http://ns.adobe.com/Graphs/1.0/">
	<!ENTITY ns_vars "http://ns.adobe.com/Variables/1.0/">
	<!ENTITY ns_imrep "http://ns.adobe.com/ImageReplacement/1.0/">
	<!ENTITY ns_sfw "http://ns.adobe.com/SaveForWeb/1.0/">
	<!ENTITY ns_custom "http://ns.adobe.com/GenericCustomNamespace/1.0/">
	<!ENTITY ns_adobe_xpath "http://ns.adobe.com/XPath/1.0/">
]>
<svg version="1.1" id="Layer_1" xmlns:x="&ns_extend;" xmlns:i="&ns_ai;" xmlns:graph="&ns_graphs;"
	 xmlns="http://www.w3.org/2000/svg" xmlns:xlink="http://www.w3.org/1999/xlink" x="0px" y="0px" viewBox="0 0 1920 1080"
	 style="enable-background:new 0 0 1920 1080;" xml:space="preserve">
<style type="text/css">
	.st0{enable-background:new    ;}
	.st1{fill:#9C9C9C;}
	.st2{fill:#DFDFDF;}
</style>
<metadata>
	<sfw  xmlns="&ns_sfw;">
		<slices></slices>
		<sliceSourceBounds  bottomLeftOrigin="true" height="781.1" width="984.4" x="411.1" y="-871"></sliceSourceBounds>
	</sfw>
</metadata>
<g>
	<g>
		<g class="st0">
			<g>
				<path class="st1" d="M1071.7,474.7l57.9-8.1l0,21.4l-57.4,8.1c-1.1,0.1-2,0.7-2.8,1.7c-0.8,1-1.2,2-1.2,3.1l-0.2,84.9l-20,2.8
					l0.2-85.5c0-4.5,1.1-8.8,3.3-12.9c2.2-4.1,5.1-7.5,8.6-10.3C1063.6,477,1067.6,475.3,1071.7,474.7z M1128.7,487.1l0-19.4l-57,8
					c-4,0.6-7.8,2.2-11.2,4.9c-3.4,2.7-6.2,6-8.3,10c-2.1,3.9-3.1,8.1-3.1,12.4l-0.2,84.5l18.3-2.6l0.2-84c0-1.4,0.5-2.7,1.5-3.9
					c1-1.2,2.1-1.9,3.4-2L1128.7,487.1"/>
			</g>
			<g>
				<path d="M1131.4,292.8c1.1-0.1,1.9,0.1,2.7,0.9c0.8,0.8,1.1,1.7,1.1,2.8l0,20.3l-65.2,9.2l0-20.3c0-1.1,0.4-2.2,1.2-3.1
					c0.8-1,1.7-1.5,2.8-1.7L1131.4,292.8z"/>
			</g>
			<g>
				<path class="st2" d="M1154.4,333.2l-85.4,12l0,19.9c0,1.4,0.5,2.5,1.5,3.4c1,0.9,2.1,1.3,3.4,1.1l80.6-11.3l0,19.4l-81.1,11.4
					c-4,0.6-7.8,0-11.2-1.8c-3.4-1.7-6.2-4.3-8.3-7.7c-2.1-3.3-3.1-7.2-3.1-11.5l0.1-60.4c0-4.3,1.1-8.5,3.1-12.4
					c2.1-3.9,4.9-7.3,8.3-10c3.4-2.7,7.2-4.3,11.2-4.9l58.5-8.2c4.1-0.6,8,0,11.4,1.7c3.4,1.7,6.1,4.3,8.2,7.7c2,3.3,3,7.2,3,11.5
					L1154.4,333.2z M1069.1,305.8l0,21.3l67-9.4l0-21.3c0-1.4-0.5-2.5-1.4-3.4c-0.9-0.9-2-1.3-3.3-1.1l-57.4,8.1
					c-1.3,0.2-2.4,0.9-3.4,2C1069.5,303.1,1069.1,304.4,1069.1,305.8"/>
			</g>
			<g>
				<path class="st1" d="M1136.1,296.4l0,21.3l-67,9.4l0-21.3c0-1.4,0.5-2.7,1.5-3.9c1-1.2,2.1-1.9,3.4-2l57.4-8.1
					c1.3-0.2,2.4,0.2,3.3,1.1C1135.6,293.9,1136.1,295,1136.1,296.4z M1135.1,316.8l0-20.3c0-1.1-0.4-2.1-1.1-2.8
					c-0.7-0.8-1.6-1-2.7-0.9l-57.4,8.1c-1.1,0.1-2,0.7-2.8,1.7c-0.8,1-1.2,2-1.2,3.1l0,20.3L1135.1,316.8"/>
			</g>
			<g>
				<path d="M1010.5,504.6c1.1-0.1,1.9,0.1,2.7,0.9c0.7,0.8,1.1,1.7,1.1,2.8l0,20.3l-65.2,9.2l0-20.3c0-1.1,0.4-2.2,1.2-3.1
					c0.8-1,1.7-1.5,2.8-1.7L1010.5,504.6z"/>
			</g>
			<g>
				<path class="st1" d="M1034.5,545.8l-85.4,12l0,19c0,1.1,0.4,2.1,1.2,2.8c0.8,0.7,1.7,1,2.8,0.9l81.5-11.4l0,21.4l-82,11.5
					c-4.2,0.6-8.1,0-11.7-1.8c-3.5-1.8-6.4-4.5-8.6-7.9c-2.2-3.5-3.2-7.5-3.2-12l0.1-60.4c0-4.5,1.1-8.8,3.3-12.9
					c2.2-4.1,5.1-7.5,8.6-10.3c3.5-2.8,7.5-4.5,11.7-5.1l58.5-8.2c4.3-0.6,8.3,0,11.8,1.8c3.5,1.8,6.4,4.5,8.5,7.9
					c2.1,3.5,3.1,7.5,3.1,12L1034.5,545.8z M949.6,580.4c-1-0.9-1.5-2.1-1.5-3.4l0-19.9l85.4-12l0.1-39.9c0-4.3-1-8.2-3-11.5
					c-2-3.3-4.8-5.9-8.2-7.7c-3.4-1.7-7.2-2.3-11.4-1.7l-58.5,8.2c-4,0.6-7.8,2.2-11.2,4.9c-3.4,2.7-6.2,6-8.3,10
					c-2.1,3.9-3.1,8.1-3.1,12.4l-0.1,60.4c0,4.3,1,8.2,3.1,11.5c2.1,3.3,4.9,5.9,8.3,7.7c3.4,1.7,7.2,2.3,11.2,1.8l81.1-11.4l0-19.4
					L953,581.5C951.7,581.7,950.5,581.3,949.6,580.4"/>
			</g>
			<g>
				<path class="st1" d="M1015.2,508.2l0,21.3l-67,9.4l0-21.3c0-1.4,0.5-2.7,1.5-3.9c1-1.2,2.1-1.9,3.4-2l57.4-8.1
					c1.3-0.2,2.4,0.2,3.3,1.1C1014.8,505.7,1015.2,506.9,1015.2,508.2z M1014.3,528.7l0-20.3c0-1.1-0.4-2.1-1.1-2.8
					c-0.7-0.8-1.6-1-2.7-0.9l-57.4,8.1c-1.1,0.1-2,0.7-2.8,1.7c-0.8,1-1.2,2-1.2,3.1l0,20.3L1014.3,528.7"/>
			</g>
			<g>
				<path class="st1" d="M1155.3,334l-85.4,12l0,19c0,1.1,0.4,2,1.2,2.8c0.8,0.7,1.7,1,2.8,0.9l81.5-11.4l0,21.4l-82,11.5
					c-4.2,0.6-8.1,0-11.7-1.8c-3.5-1.8-6.4-4.5-8.6-7.9c-2.1-3.5-3.2-7.5-3.2-12l0.1-60.4c0-4.5,1.1-8.8,3.3-12.9
					c2.2-4.1,5.1-7.5,8.6-10.3c3.5-2.8,7.5-4.5,11.7-5.1l58.5-8.2c4.3-0.6,8.3,0,11.8,1.8c3.5,1.8,6.4,4.5,8.5,7.9
					c2.1,3.5,3.2,7.5,3.1,12L1155.3,334z M1070.4,368.6c-1-0.9-1.5-2.1-1.5-3.4l0-19.9l85.4-12l0.1-39.9c0-4.3-1-8.2-3-11.5
					c-2-3.3-4.8-5.9-8.2-7.7c-3.4-1.7-7.2-2.3-11.4-1.7l-58.5,8.2c-4,0.6-7.8,2.2-11.2,4.9c-3.4,2.7-6.2,6-8.3,10
					c-2.1,3.9-3.1,8.1-3.1,12.4l-0.1,60.4c0,4.3,1,8.2,3.1,11.5c2.1,3.3,4.9,5.9,8.3,7.7c3.4,1.7,7.2,2.3,11.2,1.8l81.1-11.4l0-19.4
					l-80.6,11.3C1072.5,369.8,1071.4,369.5,1070.4,368.6"/>
			</g>
			<g>
				<path class="st1" d="M898.1,499.1l23.2-3.3l-57.4,118.6l-19.7,2.8l-57-102.5l23.2-3.3l43.7,79.8L898.1,499.1z M863.3,613.5
					L919.8,497l-21.1,3l-44.6,93.3l-44.2-80.8l-21.1,3l56,100.7L863.3,613.5"/>
			</g>
			<g>
				<path class="st2" d="M1012.6,289.1c4.1-0.6,8,0,11.4,1.7c3.4,1.7,6.2,4.3,8.2,7.7c2,3.3,3,7.2,3,11.5l-0.2,84.5l-18.1,2.5
					l0.2-84c0-1.4-0.5-2.5-1.5-3.4c-1-0.9-2.1-1.3-3.4-1.1l-39.5,5.6c-1.3,0.2-2.4,0.9-3.4,2c-1,1.2-1.5,2.5-1.5,3.9l-0.2,84
					l-18.4,2.6l0.2-84c0-1.4-0.5-2.5-1.5-3.4c-1-0.9-2.1-1.3-3.4-1.1l-39.7,5.6c-1.3,0.2-2.4,0.9-3.3,2c-0.9,1.2-1.4,2.4-1.4,3.8
					l-0.2,84l-18.4,2.6l0.2-108.6L1012.6,289.1z"/>
			</g>
			<g>
				<path class="st1" d="M780.2,405.7l0-21.3l67-9.4l0,26.5l-62.1,8.7c-1.3,0.2-2.5-0.2-3.4-1.1
					C780.6,408.3,780.2,407.1,780.2,405.7z M781.1,385.3l0,20.3c0,1.1,0.4,2,1.2,2.8c0.8,0.7,1.7,1,2.8,0.9l61.2-8.6l0-24.5
					L781.1,385.3"/>
			</g>
			<g>
				<path class="st2" d="M862.7,322.3c2,3.3,3,7.2,3,11.5l-0.2,84.5l-81.1,11.4c-4.1,0.6-8,0-11.4-1.7c-3.4-1.7-6.2-4.3-8.2-7.7
					c-2-3.3-3-7.2-3-11.5l0.1-39.9l85.3-12l0-19.9c0-1.4-0.5-2.5-1.4-3.4c-0.9-0.9-2-1.3-3.3-1.1L762,343.8l0-19.4l81.1-11.4
					c4.2-0.6,8,0,11.4,1.7C857.9,316.4,860.7,319,862.7,322.3z M847.2,401.5l0-26.5l-67,9.4l0,21.3c0,1.4,0.5,2.5,1.5,3.4
					c1,0.9,2.1,1.3,3.4,1.1L847.2,401.5"/>
			</g>
			<g>
				<path d="M781.1,405.6l0-20.3l65.2-9.2l0,24.5l-61.2,8.6c-1.1,0.2-2-0.1-2.8-0.9C781.4,407.6,781,406.7,781.1,405.6z"/>
			</g>
			<g>
				<path d="M754.8,514.2c1.1-0.1,1.9,0.1,2.7,0.9c0.7,0.8,1.1,1.7,1.1,2.8l-0.2,85.7c0,1.1-0.4,2.2-1.1,3.1c-0.7,1-1.6,1.5-2.7,1.6
					l-80.5,11.3c-1.1,0.2-2-0.1-2.8-0.9c-0.8-0.7-1.2-1.7-1.2-2.8l0.2-85.7c0-1.1,0.4-2.2,1.2-3.1c0.8-1,1.7-1.5,2.8-1.7
					L754.8,514.2z"/>
			</g>
			<g>
				<path class="st1" d="M775.7,502.3c2.1,3.5,3.1,7.6,3.1,12.2l-0.2,86.9c0,4.6-1.1,9-3.2,13.1c-2.1,4.1-5,7.5-8.5,10.2
					c-3.5,2.7-7.5,4.4-11.8,5l-81.5,11.5c-4.3,0.6-8.3,0-11.8-1.7c-3.5-1.7-6.4-4.4-8.5-7.9c-2.1-3.5-3.1-7.6-3.1-12.2l0.2-86.9
					c0-4.6,1.1-9,3.2-13.1c2.1-4.1,5-7.5,8.5-10.2c3.5-2.7,7.5-4.4,11.8-5l81.5-11.5c4.3-0.6,8.3,0,11.8,1.7
					C770.7,496.2,773.6,498.8,775.7,502.3z M777.8,601.5l0.2-86.9c0-4.4-1-8.4-3-11.7c-2-3.3-4.8-5.9-8.2-7.6
					c-3.4-1.7-7.2-2.2-11.4-1.6l-81.5,11.5c-4.1,0.6-8,2.2-11.4,4.8c-3.4,2.6-6.2,5.9-8.2,9.9c-2,3.9-3.1,8.1-3.1,12.5l-0.2,86.9
					c0,4.4,1,8.4,3,11.7c2,3.3,4.8,5.9,8.2,7.6c3.4,1.7,7.2,2.2,11.4,1.6l81.5-11.5c4.2-0.6,8-2.2,11.4-4.8c3.4-2.6,6.2-5.9,8.2-9.9
					C776.7,610.1,777.8,605.9,777.8,601.5"/>
			</g>
			<g>
				<path class="st1" d="M754.8,513.2c1.3-0.2,2.4,0.2,3.3,1.1c0.9,0.9,1.4,2.1,1.4,3.4l-0.2,85.7c0,1.4-0.5,2.7-1.4,3.8
					c-0.9,1.2-2,1.9-3.3,2l-80.5,11.3c-1.3,0.2-2.5-0.2-3.4-1.1c-1-0.9-1.5-2.1-1.5-3.4l0.2-85.7c0-1.4,0.5-2.7,1.5-3.9
					c1-1.2,2.1-1.9,3.4-2L754.8,513.2z M758.4,603.6l0.2-85.7c0-1.1-0.4-2.1-1.1-2.8c-0.7-0.7-1.6-1-2.7-0.9l-80.5,11.3
					c-1.1,0.2-2,0.7-2.8,1.7c-0.8,1-1.2,2-1.2,3.1l-0.2,85.7c0,1.1,0.4,2,1.2,2.8c0.8,0.7,1.7,1,2.8,0.9l80.5-11.3
					c1.1-0.1,1.9-0.7,2.7-1.6C758.1,605.8,758.4,604.8,758.4,603.6"/>
			</g>
			<g>
				<path class="st1" d="M863.5,321.7c2.1,3.5,3.1,7.5,3.1,12l-0.2,85.5l-82,11.5c-4.3,0.6-8.3,0-11.8-1.8c-3.5-1.8-6.4-4.5-8.5-7.9
					c-2.1-3.5-3.1-7.5-3.1-12l0.1-40.9l85.3-12l0-19c0-1.1-0.4-2.1-1.1-2.8c-0.8-0.8-1.6-1-2.7-0.9l-81.5,11.4l0-21.4l82-11.5
					c4.3-0.6,8.3,0,11.8,1.8C858.5,315.6,861.4,318.2,863.5,321.7z M865.6,418.3l0.2-84.5c0-4.3-1-8.2-3-11.5
					c-2-3.3-4.8-5.9-8.2-7.7c-3.4-1.7-7.2-2.3-11.4-1.7l-81.1,11.4l0,19.4l80.6-11.3c1.3-0.2,2.4,0.2,3.3,1.1
					c0.9,0.9,1.4,2.1,1.4,3.4l0,19.9l-85.3,12l-0.1,39.9c0,4.3,1,8.2,3,11.5c2,3.3,4.8,5.9,8.2,7.7c3.4,1.7,7.2,2.3,11.4,1.7
					L865.6,418.3"/>
			</g>
			<g>
				<path class="st2" d="M723.4,303.3c4.1-0.6,8,0,11.5,1.6c3.5,1.7,6.2,4.2,8.2,7.6c2,3.3,3,7.3,3,11.7l0,7.6l-18.4,2.6l0-7.1
					c0-1.4-0.5-2.5-1.4-3.4c-0.9-0.9-2-1.3-3.3-1.1l-80.5,11.3c-1.3,0.2-2.4,0.9-3.4,2c-1,1.2-1.5,2.5-1.5,3.8l-0.2,85.8
					c0,1.4,0.5,2.5,1.5,3.4c1,0.9,2.1,1.3,3.4,1.1l80.5-11.3c1.3-0.2,2.4-0.9,3.3-2c0.9-1.2,1.4-2.4,1.4-3.8l0.1-29.4l-30.1,4.2
					l0-19.6l48.6-6.8l-0.1,49.6c0,4.4-1,8.7-3.1,12.6c-2,3.9-4.8,7.2-8.3,9.9c-3.5,2.6-7.3,4.3-11.5,4.9l-81.4,11.4
					c-4.2,0.6-8,0-11.4-1.6c-3.4-1.7-6.1-4.2-8.2-7.6c-2-3.3-3-7.3-3-11.7l0.2-86.9c0-4.4,1-8.7,3.1-12.5c2-3.9,4.8-7.2,8.2-9.9
					c3.4-2.6,7.2-4.3,11.4-4.8L723.4,303.3z"/>
			</g>
			<g>
				<path class="st1" d="M747,332.7l-20.2,2.8l0-8c0-1.1-0.4-2.1-1.1-2.8c-0.7-0.7-1.6-1-2.7-0.9l-80.5,11.3c-1.1,0.1-2,0.7-2.8,1.7
					c-0.8,1-1.2,2-1.2,3.1l-0.2,85.8c0,1.1,0.4,2,1.2,2.8c0.8,0.7,1.7,1,2.8,0.9l80.5-11.3c1.1-0.1,1.9-0.7,2.7-1.6
					c0.8-1,1.1-2,1.1-3.1l0.1-28.4l-30.1,4.2l0-21.6l50.3-7.1l-0.1,50.5c0,4.6-1.1,9-3.2,13.1c-2.1,4.1-5,7.5-8.6,10.2
					c-3.6,2.7-7.6,4.4-11.9,5l-81.4,11.4c-4.3,0.6-8.3,0-11.8-1.7c-3.5-1.7-6.4-4.4-8.5-7.9c-2.1-3.5-3.1-7.6-3.1-12.2l0.2-86.9
					c0-4.6,1.1-9,3.2-13.1c2.1-4.1,5-7.5,8.5-10.2c3.5-2.7,7.5-4.4,11.8-5l81.4-11.4c4.3-0.6,8.3,0,11.9,1.7
					c3.6,1.7,6.5,4.4,8.6,7.8c2.1,3.5,3.1,7.6,3.1,12.2L747,332.7z M726.3,323.9c0.9,0.9,1.4,2.1,1.4,3.4l0,7.1l18.4-2.6l0-7.6
					c0-4.4-1-8.4-3-11.7c-2-3.3-4.8-5.9-8.2-7.6c-3.5-1.7-7.3-2.2-11.5-1.6L642,314.8c-4.1,0.6-8,2.2-11.4,4.8
					c-3.4,2.6-6.2,5.9-8.2,9.9c-2,3.9-3.1,8.1-3.1,12.5l-0.2,86.9c0,4.4,1,8.4,3,11.7c2,3.3,4.8,5.9,8.2,7.6
					c3.4,1.7,7.2,2.2,11.4,1.6l81.4-11.4c4.2-0.6,8-2.2,11.5-4.9c3.5-2.6,6.2-6,8.3-9.9c2-3.9,3.1-8.1,3.1-12.6l0.1-49.6l-48.6,6.8
					l0,19.6l30.1-4.2l-0.1,29.4c0,1.4-0.5,2.7-1.4,3.8c-0.9,1.2-2,1.9-3.3,2l-80.5,11.3c-1.3,0.2-2.4-0.2-3.4-1.1
					c-1-0.9-1.5-2.1-1.5-3.4l0.2-85.8c0-1.4,0.5-2.7,1.5-3.8c1-1.2,2.1-1.9,3.4-2l80.5-11.3C724.3,322.6,725.4,323,726.3,323.9"/>
			</g>
			<g>
				<path d="M413.1,228.9L1394.6,91l-1.2,641L412,869.9L413.1,228.9z M629.9,449c3.5,1.7,7.5,2.3,11.8,1.7l81.4-11.4
					c4.3-0.6,8.3-2.3,11.9-5c3.6-2.7,6.5-6.2,8.6-10.3c2.1-4.1,3.2-8.5,3.2-13.1l0.1-50.5l-50.3,7.1l0,21.6l30.1-4.2l-0.1,28.4
					c0,1.1-0.4,2.2-1.1,3.1c-0.7,1-1.6,1.5-2.7,1.6l-80.5,11.3c-1.1,0.1-2-0.1-2.8-0.9c-0.8-0.8-1.2-1.7-1.2-2.8l0.2-85.8
					c0-1.1,0.4-2.2,1.2-3.1c0.8-1,1.7-1.5,2.8-1.7l80.5-11.3c1.1-0.1,1.9,0.1,2.7,0.9c0.8,0.8,1.1,1.7,1.1,2.8l0,8l20.2-2.8l0-8.6
					c0-4.6-1-8.7-3.1-12.2c-2.1-3.5-5-6.1-8.6-7.8c-3.6-1.7-7.6-2.3-11.9-1.7L642,313.8c-4.3,0.6-8.3,2.3-11.8,5
					c-3.5,2.7-6.4,6.2-8.5,10.2c-2.1,4.1-3.2,8.5-3.2,13.1l-0.2,86.9c0,4.6,1,8.7,3.1,12.2C623.5,444.7,626.4,447.3,629.9,449
					 M778.7,601.3l0.2-86.9c0-4.6-1-8.7-3.1-12.2c-2.1-3.5-4.9-6.1-8.5-7.9c-3.5-1.7-7.5-2.3-11.8-1.7l-81.5,11.5
					c-4.3,0.6-8.3,2.3-11.8,5c-3.5,2.7-6.4,6.2-8.5,10.2c-2.1,4.1-3.2,8.5-3.2,13.1l-0.2,86.9c0,4.6,1,8.7,3.1,12.2
					c2.1,3.5,4.9,6.1,8.5,7.9c3.5,1.7,7.5,2.3,11.8,1.7l81.5-11.5c4.3-0.6,8.3-2.3,11.8-5c3.5-2.7,6.4-6.2,8.5-10.2
					C777.6,610.3,778.6,605.9,778.7,601.3 M1035.9,395.4l0.2-85.5c0-4.5-1.1-8.5-3.1-12c-2.1-3.5-4.9-6.1-8.5-7.9
					c-3.5-1.8-7.5-2.4-11.8-1.8l-131.8,18.5l-0.2,110.5l20.2-2.8l0.2-84.9c0-1.1,0.4-2.2,1.1-3.1c0.7-1,1.6-1.5,2.7-1.7l39.7-5.6
					c1.1-0.1,2,0.1,2.8,0.9c0.8,0.8,1.2,1.7,1.2,2.8l-0.2,84.9l20.2-2.8l0.2-84.9c0-1.1,0.4-2.2,1.2-3.1c0.8-1,1.7-1.5,2.8-1.7
					l39.5-5.6c1.1-0.2,2,0.1,2.8,0.9c0.8,0.8,1.2,1.7,1.2,2.8l-0.2,84.9L1035.9,395.4 M863.9,614.4l57.4-118.6l-23.2,3.3l-44,92.2
					l-43.7-79.8l-23.2,3.3l57,102.5L863.9,614.4 M1034.5,545.8l0.1-40.9c0-4.5-1.1-8.5-3.1-12c-2.1-3.5-4.9-6.1-8.5-7.9
					c-3.5-1.8-7.5-2.4-11.8-1.8l-58.5,8.2c-4.2,0.6-8.1,2.3-11.7,5.1c-3.5,2.8-6.4,6.3-8.6,10.3c-2.2,4.1-3.3,8.4-3.3,12.9
					l-0.1,60.4c0,4.5,1.1,8.5,3.2,12c2.2,3.5,5,6.1,8.6,7.9c3.5,1.8,7.5,2.4,11.7,1.8l82-11.5l0-21.4L953,580.5
					c-1.1,0.1-2-0.1-2.8-0.9c-0.8-0.7-1.2-1.7-1.2-2.8l0-19L1034.5,545.8 M772.6,428.9c3.5,1.8,7.5,2.4,11.8,1.8l82-11.5l0.2-85.5
					c0-4.5-1.1-8.5-3.1-12c-2.1-3.5-4.9-6.1-8.5-7.9c-3.5-1.8-7.5-2.4-11.8-1.8l-82,11.5l0,21.4l81.5-11.4c1.1-0.1,1.9,0.1,2.7,0.9
					c0.8,0.8,1.1,1.7,1.1,2.8l0,19l-85.3,12L761,409c0,4.5,1.1,8.5,3.1,12C766.2,424.4,769.1,427.1,772.6,428.9 M1155.3,334
					l0.1-40.9c0-4.5-1.1-8.5-3.2-12c-2.1-3.5-4.9-6.1-8.5-7.9c-3.5-1.8-7.5-2.4-11.8-1.8l-58.5,8.2c-4.2,0.6-8.1,2.3-11.7,5.1
					c-3.5,2.8-6.4,6.3-8.6,10.3c-2.2,4.1-3.3,8.4-3.3,12.9l-0.1,60.4c0,4.5,1.1,8.5,3.2,12c2.1,3.5,5,6.1,8.6,7.9
					c3.5,1.8,7.5,2.4,11.7,1.8l82-11.5l0-21.4l-81.5,11.4c-1.1,0.1-2-0.1-2.8-0.9c-0.8-0.8-1.2-1.7-1.2-2.8l0-19L1155.3,334
					 M1129.6,487.9l0-21.4l-57.9,8.1c-4.2,0.6-8.1,2.3-11.7,5.1c-3.5,2.8-6.4,6.3-8.6,10.3c-2.2,4.1-3.3,8.4-3.3,12.9l-0.2,85.5
					l20-2.8l0.2-84.9c0-1.1,0.4-2.2,1.2-3.1c0.8-1,1.7-1.5,2.8-1.7L1129.6,487.9"/>
			</g>
			<g>
				<polygon class="st2" points="919.8,497 863.3,613.5 844.7,616.1 788.7,515.4 809.8,512.5 854.1,593.2 898.6,500 				"/>
			</g>
			<g>
				<path class="st1" d="M412.3,228.1l983.2-138.2l-1.2,642.9L411.1,871L412.3,228.1z M1393.4,732l1.2-641L413.1,228.9l-1.2,641
					L1393.4,732"/>
			</g>
			<g>
				<path class="st2" d="M1128.7,467.6l0,19.4l-56.5,7.9c-1.3,0.2-2.4,0.9-3.4,2c-1,1.2-1.5,2.5-1.5,3.9l-0.2,84l-18.3,2.6l0.2-84.5
					c0-4.3,1.1-8.5,3.1-12.4c2.1-3.9,4.9-7.3,8.3-10c3.4-2.7,7.2-4.3,11.2-4.9L1128.7,467.6z"/>
			</g>
			<g>
				<path class="st2" d="M1033.6,545l-85.4,12l0,19.9c0,1.4,0.5,2.5,1.5,3.4c1,0.9,2.1,1.3,3.4,1.1l80.6-11.3l0,19.4L952.4,601
					c-4,0.6-7.8,0-11.2-1.8c-3.4-1.7-6.2-4.3-8.3-7.7c-2.1-3.3-3.1-7.2-3.1-11.5l0.1-60.4c0-4.3,1.1-8.5,3.1-12.4
					c2.1-3.9,4.9-7.3,8.3-10c3.4-2.7,7.2-4.3,11.2-4.9l58.5-8.2c4.1-0.6,8,0,11.4,1.7c3.4,1.7,6.1,4.3,8.2,7.7c2,3.3,3,7.2,3,11.5
					L1033.6,545z M948.2,517.6l0,21.3l67-9.4l0-21.3c0-1.4-0.5-2.5-1.4-3.4c-0.9-0.9-2-1.3-3.3-1.1l-57.4,8.1
					c-1.3,0.2-2.4,0.9-3.4,2C948.7,515,948.2,516.3,948.2,517.6"/>
			</g>
			<g>
				<path class="st1" d="M1032.9,297.9c2.1,3.5,3.1,7.5,3.1,12l-0.2,85.5l-19.9,2.8l0.2-84.9c0-1.1-0.4-2-1.2-2.8
					c-0.8-0.7-1.7-1-2.8-0.9l-39.5,5.6c-1.1,0.1-2,0.7-2.8,1.7c-0.8,1-1.2,2-1.2,3.1l-0.2,84.9l-20.2,2.8l0.2-84.9
					c0-1.1-0.4-2-1.2-2.8c-0.8-0.7-1.7-1-2.8-0.9l-39.7,5.6c-1.1,0.1-1.9,0.7-2.7,1.6c-0.8,1-1.1,2-1.1,3.1l-0.2,84.9l-20.2,2.8
					l0.2-110.5l131.8-18.5c4.3-0.6,8.3,0,11.8,1.8C1028,291.8,1030.8,294.4,1032.9,297.9z M1035,394.5l0.2-84.5c0-4.3-1-8.2-3-11.5
					c-2-3.3-4.8-5.9-8.2-7.7c-3.4-1.7-7.2-2.3-11.4-1.7l-130.9,18.4l-0.2,108.6l18.4-2.6l0.2-84c0-1.4,0.5-2.7,1.4-3.8
					c0.9-1.2,2-1.8,3.3-2l39.7-5.6c1.3-0.2,2.4,0.2,3.4,1.1c1,0.9,1.5,2.1,1.5,3.4l-0.2,84l18.4-2.6l0.2-84c0-1.4,0.5-2.7,1.5-3.9
					c1-1.2,2.1-1.9,3.4-2l39.5-5.6c1.3-0.2,2.5,0.2,3.4,1.1c1,0.9,1.5,2.1,1.5,3.4l-0.2,84L1035,394.5"/>
			</g>
			<g>
				<path class="st2" d="M774.9,502.9c2,3.3,3,7.3,3,11.7l-0.2,86.9c0,4.4-1,8.6-3.1,12.5c-2,3.9-4.8,7.2-8.2,9.9
					c-3.4,2.6-7.2,4.3-11.4,4.8l-81.5,11.5c-4.2,0.6-8,0-11.4-1.6c-3.4-1.7-6.1-4.2-8.2-7.6c-2-3.3-3-7.3-3-11.7l0.2-86.9
					c0-4.4,1-8.7,3.1-12.5c2-3.9,4.8-7.2,8.2-9.9c3.4-2.6,7.2-4.3,11.4-4.8l81.5-11.5c4.2-0.6,8,0,11.4,1.6
					C770.2,497,772.9,499.5,774.9,502.9z M759.3,603.5l0.2-85.7c0-1.4-0.5-2.5-1.4-3.4c-0.9-0.9-2-1.3-3.3-1.1l-80.5,11.3
					c-1.3,0.2-2.5,0.9-3.4,2c-1,1.2-1.5,2.5-1.5,3.9l-0.2,85.7c0,1.4,0.5,2.5,1.5,3.4c1,0.9,2.1,1.3,3.4,1.1l80.5-11.3
					c1.3-0.2,2.4-0.9,3.3-2C758.9,606.2,759.3,604.9,759.3,603.5"/>
			</g>
		</g>
	</g>
</g>
</svg>
