<?xml version="1.0" encoding="utf-8"?>
<!-- Generator: Adobe Illustrator 26.2.1, SVG Export Plug-In . SVG Version: 6.00 Build 0)  -->
<svg version="1.1" id="a" xmlns="http://www.w3.org/2000/svg" xmlns:xlink="http://www.w3.org/1999/xlink" x="0px" y="0px"
	 viewBox="0 0 2737.2 1366.5" style="enable-background:new 0 0 2737.2 1366.5;" xml:space="preserve">
<style type="text/css">
	.st0{fill:#6F2195;stroke:#000000;stroke-width:2;stroke-miterlimit:10;}
	.st1{fill:none;stroke:#00FF3A;stroke-width:6;stroke-miterlimit:10;}
	.st2{stroke:#FFAD00;stroke-width:2;stroke-miterlimit:10;}
</style>
<g>
	<rect y="4.3" class="st0" width="2737.2" height="1348.1"/>
	<line class="st1" x1="0" y1="1242.4" x2="2737.2" y2="1242.4"/>
	<line class="st1" x1="0" y1="101.9" x2="2737.2" y2="101.9"/>
	<line class="st1" x1="237.7" y1="3.2" x2="237.7" y2="101.8"/>
	<line class="st1" x1="612.8" y1="3.2" x2="612.8" y2="101.8"/>
	<line class="st1" x1="1000.9" y1="3.2" x2="1000.9" y2="101.8"/>
	<line class="st1" x1="1411" y1="3.2" x2="1411" y2="101.8"/>
	<line class="st1" x1="1803.7" y1="3.2" x2="1803.7" y2="101.8"/>
	<line class="st1" x1="2254.7" y1="3.2" x2="2254.7" y2="101.8"/>
	<line class="st1" x1="422.4" y1="1242.5" x2="422.4" y2="1351.4"/>
	<line class="st1" x1="810.3" y1="1244.5" x2="810.3" y2="1353.4"/>
	<line class="st1" x1="1185.5" y1="1242.4" x2="1185.5" y2="1351.3"/>
	<line class="st1" x1="1596.9" y1="1242.4" x2="1596.9" y2="1351.3"/>
	<line class="st1" x1="1988.4" y1="1242.4" x2="1988.4" y2="1351.3"/>
	<line class="st1" x1="2439.4" y1="1242.4" x2="2439.4" y2="1351.3"/>
	<g>
		<path class="st2" d="M870.2,436.3v-99.8h104.1v18.3h-83.2v22.5h67v18.3h-67v40.8H870.2L870.2,436.3z"/>
		<path class="st2" d="M998.7,347.7v-18.2h20.5v18.2H998.7z M998.7,436.3v-80.4h20.5v80.4H998.7z"/>
		<path class="st2" d="M1053.1,436.3v-80.4h71.1c4,0,7.6,0.9,10.9,2.6c3.3,1.8,5.8,4.1,7.8,6.9c1.9,2.9,2.9,6,2.9,9.4v61.4h-20.5
			v-60.6c0-0.5-0.2-0.9-0.6-1.2c-0.4-0.4-0.9-0.6-1.4-0.6h-47.7c-0.5,0-1,0.2-1.4,0.6c-0.4,0.4-0.6,0.8-0.6,1.2v60.6H1053.1
			L1053.1,436.3z"/>
		<path class="st2" d="M1178.3,436.3V329.6h20.5v57.4h16.5l32.4-31h22v5l-36.3,35.2l36.2,35.2v5h-21.9l-32.4-31h-16.5v31H1178.3
			L1178.3,436.3z"/>
		<path class="st2" d="M1359.9,436.3v-99.7h91.2c4,0,7.7,0.9,11,2.6c3.4,1.8,6,4.1,8,7c2,2.9,3,6.1,3,9.6v26.9c0,3.5-1,6.7-3,9.6
			c-2,2.9-4.7,5.2-8,7c-3.4,1.8-7,2.6-11,2.6l-70.6,0.1v34.1L1359.9,436.3L1359.9,436.3z M1382.5,383.8h67.8c0.5,0,1-0.2,1.3-0.5
			c0.4-0.3,0.5-0.7,0.5-1.2v-25.5c0-0.5-0.2-0.9-0.5-1.2c-0.4-0.4-0.8-0.6-1.3-0.6h-67.8c-0.5,0-1,0.2-1.4,0.6
			c-0.4,0.4-0.6,0.8-0.6,1.2v25.5c0,0.5,0.2,0.9,0.6,1.2C1381.5,383.6,1382,383.8,1382.5,383.8z"/>
		<path class="st2" d="M1510.3,433.7c-3.3-1.8-5.9-4.1-7.9-6.9c-2-2.9-3-6-3-9.4v-87.9h20.6v87c0,0.5,0.2,0.9,0.5,1.3
			s0.8,0.6,1.3,0.6h17.5v18H1521C1517.1,436.3,1513.5,435.4,1510.3,433.7L1510.3,433.7z"/>
		<path class="st2" d="M1577.8,433.7c-3.3-1.8-5.9-4.1-7.9-6.9c-2-2.9-3-6-3-9.4v-42.4c0-3.4,1-6.6,3-9.4c2-2.9,4.6-5.2,7.9-6.9
			c3.3-1.8,6.8-2.6,10.7-2.6h49.4c4,0,7.6,0.9,10.9,2.6c3.3,1.7,5.9,4,7.9,6.9c1.9,2.9,2.9,6.1,2.9,9.5v42.4c0,3.4-1,6.6-2.9,9.4
			c-1.9,2.9-4.5,5.2-7.8,6.9c-3.3,1.8-6.9,2.6-11,2.6h-49.4C1584.6,436.3,1581,435.4,1577.8,433.7L1577.8,433.7z M1589.4,418.3h47.7
			c0.5,0,1-0.2,1.3-0.6c0.4-0.4,0.5-0.8,0.5-1.3v-40.8c0-0.5-0.2-0.9-0.5-1.2c-0.4-0.4-0.8-0.6-1.3-0.6h-47.7c-0.5,0-1,0.2-1.4,0.6
			c-0.4,0.4-0.6,0.8-0.6,1.2v40.8c0,0.5,0.2,0.9,0.6,1.3S1588.9,418.3,1589.4,418.3z"/>
		<path class="st2" d="M1705.3,466.1v-18.2h55.1c0.5,0,1-0.2,1.3-0.6c0.4-0.4,0.5-0.8,0.5-1.2v-9.8h-50.5c-4,0-7.6-0.9-10.8-2.6
			c-3.3-1.8-5.9-4.1-7.9-6.9c-2-2.9-3-6-3-9.4v-61.1h20.5v60.3c0,0.5,0.2,0.9,0.6,1.3c0.4,0.4,0.9,0.6,1.4,0.6h47.8
			c0.5,0,1-0.2,1.3-0.6c0.4-0.4,0.5-0.8,0.5-1.3v-60.3h20.5V447c0,3.5-0.9,6.7-2.8,9.6c-1.9,2.9-4.5,5.2-7.8,6.9
			c-3.3,1.7-6.9,2.6-10.9,2.6L1705.3,466.1L1705.3,466.1z"/>
		<path class="st2" d="M1821.4,433.7c-3.3-1.8-5.9-4.1-7.9-6.9c-1.9-2.9-2.9-6-2.9-9.4v-42.4c0-3.4,1-6.6,2.9-9.4
			c1.9-2.9,4.5-5.2,7.8-6.9c3.3-1.8,6.9-2.6,11-2.6h50.5v-26.3h20.6v106.7h-71.1C1828.3,436.3,1824.6,435.4,1821.4,433.7
			L1821.4,433.7z M1833.2,418.3h47.7c0.5,0,1-0.2,1.3-0.6c0.4-0.4,0.5-0.8,0.5-1.3v-40.8c0-0.5-0.2-0.9-0.5-1.2
			c-0.4-0.4-0.8-0.6-1.3-0.6h-47.7c-0.5,0-1,0.2-1.4,0.6c-0.4,0.4-0.6,0.8-0.6,1.2v40.8c0,0.5,0.2,0.9,0.6,1.3
			C1832.2,418.1,1832.7,418.3,1833.2,418.3z"/>
		<path class="st2" d="M203.2,658.1v-99.8h104.1v18.3h-83.2V599h67v18.3h-67v40.8H203.2L203.2,658.1z"/>
		<path class="st2" d="M342.4,655.4c-3.3-1.8-5.9-4.1-7.9-6.9c-2-2.9-3-6-3-9.4v-42.4c0-3.4,1-6.6,3-9.4c2-2.9,4.6-5.2,7.9-6.9
			c3.3-1.8,6.8-2.6,10.7-2.6h49.4c4,0,7.6,0.9,10.9,2.6c3.3,1.7,5.9,4,7.9,6.9c1.9,2.9,2.9,6.1,2.9,9.5V627H352v11.2
			c0,0.5,0.2,0.9,0.6,1.3c0.4,0.4,0.9,0.6,1.4,0.6h70.2v18h-71.1C349.2,658.1,345.6,657.2,342.4,655.4L342.4,655.4z M352,610.7h51.6
			v-13.2c0-0.5-0.2-0.9-0.5-1.2c-0.4-0.4-0.8-0.6-1.3-0.6H354c-0.5,0-1,0.2-1.4,0.6c-0.4,0.4-0.6,0.8-0.6,1.2L352,610.7L352,610.7z"
			/>
		<path class="st2" d="M483.7,658.1l-35.9-80.4h21.7l22.3,47.5l23.4-47.5h21.2l25,47.8l20.6-47.8H604l-34.4,80.4h-15.9L526,604.3
			l-26.4,53.8H483.7L483.7,658.1z"/>
		<path class="st2" d="M638.5,655.4c-3.3-1.8-5.9-4.1-7.9-6.9c-2-2.9-3-6-3-9.4v-42.4c0-3.4,1-6.6,3-9.4c2-2.9,4.6-5.2,7.9-6.9
			c3.3-1.8,6.8-2.6,10.7-2.6h49.4c4,0,7.6,0.9,10.9,2.6c3.3,1.7,5.9,4,7.9,6.9c1.9,2.9,2.9,6.1,2.9,9.5V627h-72.2v11.2
			c0,0.5,0.2,0.9,0.6,1.3c0.4,0.4,0.9,0.6,1.4,0.6h70.2v18h-71.1C645.3,658.1,641.7,657.2,638.5,655.4L638.5,655.4z M648,610.7h51.6
			v-13.2c0-0.5-0.2-0.9-0.5-1.2c-0.4-0.4-0.8-0.6-1.3-0.6h-47.7c-0.5,0-1,0.2-1.4,0.6c-0.4,0.4-0.6,0.8-0.6,1.2V610.7z"/>
		<path class="st2" d="M751.4,658.1v-61.4c0-3.4,1-6.6,3-9.4c2-2.9,4.6-5.2,7.9-6.9c3.3-1.8,6.9-2.6,10.8-2.6h50.7v18h-49.9
			c-0.5,0-1,0.2-1.4,0.6s-0.6,0.8-0.6,1.2v60.6H751.4L751.4,658.1z"/>
		<path class="st2" d="M914.2,558.3h86.8c4,0,7.6,0.9,10.9,2.6c3.3,1.7,6,4,7.9,7c2,3,3,6.2,3,9.7v19.5c0,1.2-0.1,2.4-0.3,3.5
			c-0.2,1.1-0.6,2.2-1.1,3.2c1.8,2.2,3.2,4.5,4.3,6.7c1.1,2.3,1.7,4.5,1.7,6.9v21.5c0,3.5-1,6.7-3,9.7c-2,3-4.7,5.3-8,7
			s-7,2.6-11,2.6h-91.2V558.3L914.2,558.3z M936.9,598.1h63.2c0.5,0,1-0.2,1.3-0.5c0.4-0.3,0.5-0.7,0.5-1.2v-18
			c0-0.5-0.2-0.9-0.5-1.2c-0.4-0.4-0.8-0.6-1.3-0.6h-63.2c-0.5,0-1,0.2-1.4,0.6c-0.4,0.4-0.6,0.8-0.6,1.2v18c0,0.5,0.2,0.9,0.6,1.2
			S936.3,598.1,936.9,598.1z M936.9,639.8h67.8c0.5,0,1-0.2,1.3-0.6c0.4-0.4,0.5-0.8,0.5-1.3v-19.8c0-0.5-0.2-0.9-0.5-1.2
			c-0.4-0.3-0.8-0.5-1.3-0.5h-67.8c-0.5,0-1,0.2-1.4,0.5c-0.4,0.3-0.6,0.7-0.6,1.2V638c0,0.5,0.2,0.9,0.6,1.3
			C935.9,639.6,936.3,639.8,936.9,639.8z"/>
		<path class="st2" d="M1059.7,658.1v-61.4c0-3.4,1-6.6,3-9.4c2-2.9,4.6-5.2,7.9-6.9c3.3-1.8,6.9-2.6,10.8-2.6h50.7v18h-49.9
			c-0.5,0-1,0.2-1.4,0.6c-0.4,0.4-0.6,0.8-0.6,1.2v60.6H1059.7L1059.7,658.1z"/>
		<path class="st2" d="M1159.8,569.5v-18.2h20.5v18.2H1159.8z M1159.8,658.1v-80.4h20.5v80.4H1159.8z"/>
		<path class="st2" d="M1221.4,655.4c-3.3-1.8-5.9-4.1-7.9-6.9c-2-2.9-3-6-3-9.4v-42.4c0-3.4,1-6.6,3-9.4c2-2.9,4.6-5.2,7.9-6.9
			c3.3-1.8,6.8-2.6,10.7-2.6h70.9v18h-70c-0.5,0-1,0.2-1.4,0.6c-0.4,0.4-0.6,0.8-0.6,1.2v40.8c0,0.5,0.2,0.9,0.6,1.3
			c0.4,0.4,0.9,0.6,1.4,0.6h70.2v18h-71.1C1228.3,658.1,1224.7,657.2,1221.4,655.4L1221.4,655.4z"/>
		<path class="st2" d="M1332,658.1V551.3h20.5v57.4h16.5l32.4-31h22v5l-36.3,35.2l36.2,35.2v5h-21.9l-32.4-31h-16.5v31L1332,658.1
			L1332,658.1z"/>
		<path class="st2" d="M1512.9,569.5v-18.2h20.5v18.2H1512.9z M1512.9,658.1v-80.4h20.5v80.4H1512.9z"/>
		<path class="st2" d="M1567.4,658.1v-80.4h71.1c4,0,7.6,0.9,10.9,2.6c3.3,1.8,5.8,4.1,7.8,6.9c1.9,2.9,2.9,6,2.9,9.4v61.4h-20.5
			v-60.6c0-0.5-0.2-0.9-0.6-1.2c-0.4-0.4-0.9-0.6-1.4-0.6h-47.7c-0.5,0-1,0.2-1.4,0.6c-0.4,0.4-0.6,0.8-0.6,1.2v60.6H1567.4
			L1567.4,658.1z"/>
		<path class="st2" d="M1767,655.4c-3.3-1.8-5.8-4.1-7.8-6.9c-1.9-2.9-2.9-6-2.9-9.4V553h20.5v24.7h35.7v18h-35.7v42.5
			c0,0.5,0.2,0.9,0.6,1.3s0.9,0.6,1.4,0.6h33.7v18H1778C1773.9,658.1,1770.3,657.2,1767,655.4L1767,655.4z"/>
		<path class="st2" d="M1843.4,658.1V551.3h20.5v26.3h50.7c3.9,0,7.4,0.9,10.7,2.6c3.3,1.8,5.9,4.1,7.9,6.9c2,2.9,3,6,3,9.4v61.4
			h-20.5v-60.6c0-0.5-0.2-0.9-0.6-1.2c-0.4-0.4-0.9-0.6-1.4-0.6h-47.7c-0.5,0-1,0.2-1.4,0.6c-0.4,0.4-0.6,0.8-0.6,1.2v60.6H1843.4z"
			/>
		<path class="st2" d="M1974.5,655.4c-3.3-1.8-5.9-4.1-7.9-6.9s-3-6-3-9.4v-42.4c0-3.4,1-6.6,3-9.4c2-2.9,4.6-5.2,7.9-6.9
			c3.3-1.8,6.8-2.6,10.7-2.6h49.4c4,0,7.6,0.9,10.9,2.6c3.3,1.7,5.9,4,7.9,6.9c1.9,2.9,2.9,6.1,2.9,9.5V627h-72.2v11.2
			c0,0.5,0.2,0.9,0.6,1.3c0.4,0.4,0.9,0.6,1.4,0.6h70.2v18h-71.1C1981.3,658.1,1977.7,657.2,1974.5,655.4L1974.5,655.4z
			 M1984.1,610.7h51.6v-13.2c0-0.5-0.2-0.9-0.5-1.2c-0.4-0.4-0.8-0.6-1.3-0.6h-47.7c-0.5,0-1,0.2-1.4,0.6c-0.4,0.4-0.6,0.8-0.6,1.2
			L1984.1,610.7L1984.1,610.7z"/>
		<path class="st2" d="M2190.8,658.1l-41.2-99.8h22l27.4,66.1l27.4-66.1h20.3l27.4,66.1l27.4-66.1h22l-41.2,99.8h-16.4l-29.4-70.8
			l-29.4,70.8H2190.8L2190.8,658.1z"/>
		<path class="st2" d="M2367.8,658.1c-3.9,0-7.5-0.9-10.8-2.6c-3.3-1.8-5.9-4.1-7.9-6.9c-1.9-2.9-2.9-6-2.9-9.4v-30.4h72v-11.2
			c0-0.5-0.2-0.9-0.5-1.2c-0.4-0.4-0.8-0.6-1.3-0.6h-70.2v-18h71c4,0,7.6,0.9,10.9,2.6c3.3,1.7,5.9,4,7.9,6.9
			c1.9,2.9,2.9,6.1,2.9,9.5v61.4L2367.8,658.1L2367.8,658.1z M2368.7,640.1h49.5v-15h-51.6v13.2c0,0.5,0.2,0.9,0.6,1.3
			C2367.7,639.9,2368.2,640.1,2368.7,640.1L2368.7,640.1z"/>
		<path class="st2" d="M2478.5,655.4c-3.3-1.8-5.9-4.1-7.9-6.9c-2-2.9-3-6-3-9.4v-87.9h20.6v87c0,0.5,0.2,0.9,0.5,1.3
			s0.8,0.6,1.3,0.6h17.5v18h-18.4C2485.3,658.1,2481.8,657.2,2478.5,655.4L2478.5,655.4z"/>
		<path class="st2" d="M2546.6,655.4c-3.3-1.8-5.9-4.1-7.9-6.9c-2-2.9-3-6-3-9.4v-87.9h20.6v87c0,0.5,0.2,0.9,0.5,1.3
			c0.4,0.4,0.8,0.6,1.3,0.6h17.5v18h-18.4C2553.5,658.1,2549.9,657.2,2546.6,655.4L2546.6,655.4z"/>
	</g>
	<rect y="4.3" class="st1" width="2737.2" height="1348.1"/>
	<line class="st1" x1="0" y1="918.9" x2="2737.2" y2="918.9"/>
	<line class="st1" x1="0" y1="813.2" x2="2737.2" y2="813.2"/>
	<line class="st1" x1="0" y1="708.5" x2="2737.2" y2="708.5"/>
	<line class="st1" x1="0" y1="300.1" x2="2737.2" y2="300.1"/>
	<line class="st1" x1="0" y1="200.5" x2="2737.2" y2="200.5"/>
	<line class="st1" x1="422.4" y1="101.8" x2="422.4" y2="200.4"/>
	<line class="st1" x1="797.5" y1="101.7" x2="797.5" y2="200.3"/>
	<line class="st1" x1="1185.5" y1="101.7" x2="1185.5" y2="200.3"/>
	<line class="st1" x1="1595.7" y1="101.7" x2="1595.7" y2="200.3"/>
	<line class="st1" x1="1988.4" y1="101.7" x2="1988.4" y2="200.3"/>
	<line class="st1" x1="2439.4" y1="101.7" x2="2439.4" y2="200.3"/>
	<line class="st1" x1="237.1" y1="200.3" x2="237.1" y2="298.9"/>
	<line class="st1" x1="612.2" y1="200.3" x2="612.2" y2="298.9"/>
	<line class="st1" x1="1000.2" y1="200.3" x2="1000.2" y2="298.9"/>
	<line class="st1" x1="1410.4" y1="200.3" x2="1410.4" y2="298.9"/>
	<line class="st1" x1="1803.1" y1="200.3" x2="1803.1" y2="298.9"/>
	<line class="st1" x1="2254.1" y1="200.3" x2="2254.1" y2="298.9"/>
	<line class="st1" x1="237.1" y1="708.6" x2="237.1" y2="813.4"/>
	<line class="st1" x1="612.2" y1="708.5" x2="612.2" y2="813.3"/>
	<line class="st1" x1="1000.2" y1="708.5" x2="1000.2" y2="813.3"/>
	<line class="st1" x1="1410.4" y1="708.5" x2="1410.4" y2="813.3"/>
	<line class="st1" x1="1803.1" y1="708.5" x2="1803.1" y2="813.3"/>
	<line class="st1" x1="2254.1" y1="708.5" x2="2254.1" y2="813.4"/>
	<line class="st1" x1="237.1" y1="921.1" x2="237.1" y2="1030"/>
	<line class="st1" x1="613.4" y1="921.1" x2="613.4" y2="1029.9"/>
	<line class="st1" x1="1410.4" y1="916.9" x2="1410.4" y2="1021.8"/>
	<line class="st1" x1="1803.1" y1="921.1" x2="1803.1" y2="1020.8"/>
	<line class="st1" x1="2255.2" y1="921.1" x2="2255.2" y2="1029.9"/>
	<line class="st1" x1="422.4" y1="813.4" x2="422.4" y2="917.4"/>
	<line class="st1" x1="797.5" y1="813.4" x2="797.5" y2="917.4"/>
	<line class="st1" x1="1185.5" y1="813.4" x2="1185.5" y2="917.4"/>
	<line class="st1" x1="1595.7" y1="813.4" x2="1595.7" y2="917.4"/>
	<line class="st1" x1="1988.4" y1="813.4" x2="1988.4" y2="917.4"/>
	<line class="st1" x1="2439.4" y1="813.4" x2="2439.4" y2="917.4"/>
	<line class="st1" x1="0" y1="418.1" x2="682.9" y2="418.1"/>
	<line class="st1" x1="1999.6" y1="418.1" x2="2737.2" y2="418.1"/>
	<line class="st1" x1="2170.9" y1="523.8" x2="2737.2" y2="523.8"/>
	<line class="st1" x1="0" y1="523.8" x2="308.8" y2="523.8"/>
	<line class="st1" x1="2439.5" y1="299.1" x2="2439.5" y2="418.1"/>
	<line class="st1" x1="2253.5" y1="421.5" x2="2253.5" y2="519.7"/>
	<line class="st1" x1="241.1" y1="421.5" x2="241.1" y2="520.1"/>
	<line class="st1" x1="425.2" y1="303.5" x2="425.2" y2="418.1"/>
	<line class="st1" x1="0" y1="1032.1" x2="666.5" y2="1032.1"/>
	<line class="st1" x1="0" y1="1136.8" x2="568.7" y2="1136.8"/>
	<line class="st1" x1="425.1" y1="1032.1" x2="425.1" y2="1133.9"/>
	<line class="st1" x1="1076.7" y1="1021.8" x2="1866.8" y2="1021.8"/>
	<line class="st1" x1="969.5" y1="1136.8" x2="1836.5" y2="1136.8"/>
	<line class="st1" x1="2232.7" y1="1032.1" x2="2737.2" y2="1032.1"/>
	<line class="st1" x1="2351.5" y1="1136.8" x2="2730.2" y2="1136.8"/>
	<line class="st1" x1="1185.3" y1="1025.2" x2="1185.3" y2="1134.1"/>
	<line class="st1" x1="1596.3" y1="1024.6" x2="1596.3" y2="1133.5"/>
	<line class="st1" x1="2439.2" y1="1028.7" x2="2439.2" y2="1137.6"/>
	<line class="st1" x1="1419.6" y1="1139.6" x2="1419.6" y2="1240.5"/>
	<line class="st1" x1="236.6" y1="1139" x2="236.6" y2="1240.8"/>
	<line class="st1" x1="1003.4" y1="1139" x2="1003.4" y2="1240.8"/>
	<line class="st1" x1="1806.3" y1="1135.5" x2="1806.3" y2="1244.4"/>
</g>
</svg>
