<?xml version="1.0" encoding="UTF-8"?><svg id="a" xmlns="http://www.w3.org/2000/svg" viewBox="0 0 2737.24 1366.53"><defs><style>.b{stroke:#00ff3a;}.b,.c,.d,.e,.f,.g,.h{stroke-miterlimit:10;}.b,.e{fill:none;}.b,.g{stroke-width:6px;}.c,.d,.e,.g,.h{stroke:#000;}.c,.f{stroke-width:2px;}.c,.h{fill:#6f2195;}.d{stroke-width:8px;}.d,.g{fill:#00ff3a;}.e{stroke-width:20px;}.f{stroke:#ffad00;}.h{stroke-width:12px;}</style></defs><rect class="c" x="357.92" y="3" width="2349" height="1313"/><g><line class="b" x1="357.92" y1="1208.86" x2="2706.92" y2="1208.86"/><line class="b" x1="357.92" y1="98.08" x2="2706.92" y2="98.08"/><line class="b" x1="561.91" y1="1.96" x2="561.91" y2="98"/><line class="b" x1="883.83" y1="1.9" x2="883.83" y2="97.94"/><line class="b" x1="1216.83" y1="1.9" x2="1216.83" y2="97.94"/><line class="b" x1="1568.83" y1="1.9" x2="1568.83" y2="97.94"/><line class="b" x1="1905.83" y1="1.9" x2="1905.83" y2="97.94"/><line class="b" x1="2292.83" y1="1.9" x2="2292.83" y2="97.94"/><line class="b" x1="720.37" y1="1208.94" x2="720.37" y2="1315"/><line class="b" x1="1053.29" y1="1210.87" x2="1053.29" y2="1316.93"/><line class="b" x1="1375.29" y1="1208.87" x2="1375.29" y2="1314.93"/><line class="b" x1="1728.29" y1="1208.87" x2="1728.29" y2="1314.93"/><line class="b" x1="2064.29" y1="1208.87" x2="2064.29" y2="1314.93"/><line class="b" x1="2451.29" y1="1208.87" x2="2451.29" y2="1314.93"/><g><g><path class="f" d="M1104.67,423.74v-97.2h89.37v17.82h-71.42v21.87h57.51v17.82h-57.51v39.69h-17.96Z"/><path class="f" d="M1214.96,337.48v-17.69h17.55v17.69h-17.55Zm0,86.27v-78.3h17.55v78.3h-17.55Z"/><path class="f" d="M1261.67,423.74v-78.3h61.02c3.42,0,6.52,.86,9.32,2.56,2.79,1.71,5.02,3.96,6.68,6.75,1.66,2.79,2.5,5.85,2.5,9.18v59.81h-17.55v-59c0-.45-.18-.85-.54-1.21-.36-.36-.77-.54-1.21-.54h-40.91c-.45,0-.86,.18-1.21,.54-.36,.36-.54,.77-.54,1.21v59h-17.55Z"/><path class="f" d="M1369.13,423.74v-103.95h17.55v55.89h14.17l27.81-30.24h18.9v4.86l-31.18,34.29,31.05,34.29v4.86h-18.76l-27.81-30.24h-14.17v30.24h-17.55Z"/><path class="f" d="M1524.92,423.74v-97.06h78.3c3.42,0,6.57,.86,9.45,2.56,2.88,1.71,5.17,3.98,6.89,6.82,1.71,2.83,2.56,5.96,2.56,9.38v26.19c0,3.42-.86,6.55-2.56,9.38-1.71,2.83-4.01,5.11-6.89,6.82-2.88,1.71-6.03,2.56-9.45,2.56l-60.62,.14v33.21h-17.69Zm19.44-51.17h58.18c.45,0,.83-.16,1.15-.47,.31-.31,.47-.7,.47-1.15v-24.84c0-.45-.16-.85-.47-1.21-.32-.36-.7-.54-1.15-.54h-58.18c-.45,0-.86,.18-1.21,.54-.36,.36-.54,.77-.54,1.21v24.84c0,.45,.18,.83,.54,1.15,.36,.32,.76,.47,1.21,.47Z"/><path class="f" d="M1653.98,421.18c-2.79-1.71-5.04-3.96-6.75-6.75-1.71-2.79-2.57-5.85-2.57-9.18v-85.59h17.69v84.78c0,.45,.16,.86,.47,1.22,.31,.36,.7,.54,1.15,.54h14.98v17.55h-15.79c-3.33,0-6.39-.85-9.18-2.56Z"/><path class="f" d="M1711.89,421.18c-2.79-1.71-5.04-3.96-6.75-6.75-1.71-2.79-2.57-5.85-2.57-9.18v-41.31c0-3.33,.85-6.39,2.57-9.18,1.71-2.79,3.96-5.04,6.75-6.75,2.79-1.71,5.85-2.56,9.18-2.56h42.39c3.42,0,6.55,.83,9.38,2.5,2.83,1.67,5.08,3.92,6.75,6.75,1.66,2.84,2.5,5.92,2.5,9.25v41.31c0,3.33-.83,6.39-2.5,9.18-1.67,2.79-3.89,5.04-6.68,6.75-2.79,1.71-5.94,2.56-9.45,2.56h-42.39c-3.33,0-6.39-.85-9.18-2.56Zm9.99-14.98h40.9c.45,0,.83-.18,1.15-.54,.31-.36,.47-.76,.47-1.22v-39.69c0-.45-.16-.85-.47-1.21-.32-.36-.7-.54-1.15-.54h-40.9c-.45,0-.86,.18-1.22,.54-.36,.36-.54,.77-.54,1.21v39.69c0,.45,.18,.86,.54,1.22,.36,.36,.76,.54,1.22,.54Z"/><path class="f" d="M1821.38,452.77v-17.69h47.25c.45,0,.83-.18,1.15-.54,.31-.36,.47-.77,.47-1.21v-9.58h-43.33c-3.42,0-6.53-.85-9.31-2.56-2.79-1.71-5.04-3.96-6.75-6.75-1.71-2.79-2.57-5.85-2.57-9.18v-59.53h17.55v58.72c0,.45,.18,.86,.54,1.22,.36,.36,.76,.54,1.21,.54h41.04c.45,0,.83-.18,1.15-.54,.31-.36,.47-.76,.47-1.22v-58.72h17.55v88.42c0,3.42-.81,6.55-2.43,9.38s-3.85,5.08-6.68,6.75c-2.83,1.66-5.96,2.5-9.38,2.5h-47.93Z"/><path class="f" d="M1920.94,421.18c-2.83-1.71-5.09-3.96-6.75-6.75-1.67-2.79-2.5-5.85-2.5-9.18v-41.31c0-3.33,.83-6.39,2.5-9.18,1.66-2.79,3.89-5.04,6.68-6.75,2.79-1.71,5.94-2.56,9.45-2.56h43.33v-25.65h17.68v103.95h-61.02c-3.42,0-6.55-.85-9.38-2.56Zm10.19-14.98h40.91c.45,0,.83-.18,1.15-.54,.31-.36,.47-.76,.47-1.22v-39.69c0-.45-.16-.85-.47-1.21-.32-.36-.7-.54-1.15-.54h-40.91c-.45,0-.86,.18-1.21,.54-.36,.36-.54,.77-.54,1.21v39.69c0,.45,.18,.86,.54,1.22,.36,.36,.76,.54,1.21,.54Z"/><path class="f" d="M532.28,639.74v-97.2h89.37v17.82h-71.42v21.87h57.51v17.82h-57.51v39.69h-17.96Z"/><path class="f" d="M651.75,637.18c-2.79-1.71-5.04-3.96-6.75-6.75-1.71-2.79-2.57-5.85-2.57-9.18v-41.31c0-3.33,.85-6.39,2.57-9.18,1.71-2.79,3.96-5.04,6.75-6.75,2.79-1.71,5.85-2.56,9.18-2.56h42.39c3.42,0,6.55,.83,9.38,2.5,2.83,1.67,5.08,3.92,6.75,6.75,1.66,2.84,2.5,5.92,2.5,9.25v29.56h-61.96v10.94c0,.45,.18,.86,.54,1.22,.36,.36,.76,.54,1.21,.54h60.21v17.55h-61.02c-3.33,0-6.39-.85-9.18-2.56Zm8.23-43.6h44.28v-12.83c0-.45-.16-.85-.47-1.21-.32-.36-.7-.54-1.15-.54h-40.91c-.45,0-.86,.18-1.21,.54s-.54,.77-.54,1.21v12.83Z"/><path class="f" d="M772.98,639.74l-30.78-78.3h18.63l19.17,46.3,20.12-46.3h18.23l21.46,46.57,17.69-46.57h18.76l-29.56,78.3h-13.63l-23.76-52.38-22.68,52.38h-13.64Z"/><path class="f" d="M905.82,637.18c-2.79-1.71-5.04-3.96-6.75-6.75-1.71-2.79-2.57-5.85-2.57-9.18v-41.31c0-3.33,.85-6.39,2.57-9.18,1.71-2.79,3.96-5.04,6.75-6.75,2.79-1.71,5.85-2.56,9.18-2.56h42.39c3.42,0,6.55,.83,9.38,2.5,2.83,1.67,5.08,3.92,6.75,6.75,1.66,2.84,2.5,5.92,2.5,9.25v29.56h-61.96v10.94c0,.45,.18,.86,.54,1.22,.36,.36,.76,.54,1.21,.54h60.21v17.55h-61.02c-3.33,0-6.39-.85-9.18-2.56Zm8.23-43.6h44.28v-12.83c0-.45-.16-.85-.47-1.21-.32-.36-.7-.54-1.15-.54h-40.91c-.45,0-.86,.18-1.21,.54s-.54,.77-.54,1.21v12.83Z"/><path class="f" d="M1002.75,639.74v-59.81c0-3.33,.85-6.39,2.56-9.18,1.71-2.79,3.98-5.04,6.82-6.75,2.83-1.71,5.92-2.56,9.25-2.56h43.47v17.55h-42.79c-.45,0-.86,.18-1.22,.54-.36,.36-.54,.77-.54,1.21v59h-17.55Z"/><path class="f" d="M1142.47,542.54h74.52c3.42,0,6.55,.83,9.38,2.5,2.83,1.67,5.11,3.94,6.82,6.82,1.71,2.88,2.57,6.03,2.57,9.45v19.04c0,1.17-.09,2.29-.27,3.38-.18,1.08-.5,2.12-.95,3.1,1.53,2.16,2.77,4.34,3.71,6.55,.95,2.21,1.42,4.43,1.42,6.68v20.92c0,3.42-.86,6.57-2.57,9.45-1.71,2.88-4,5.15-6.88,6.82-2.88,1.67-6.03,2.5-9.45,2.5h-78.3v-97.2Zm19.44,38.75h54.27c.45,0,.83-.16,1.15-.47,.31-.31,.47-.7,.47-1.15v-17.55c0-.45-.16-.85-.47-1.21-.32-.36-.7-.54-1.15-.54h-54.27c-.45,0-.86,.18-1.21,.54-.36,.36-.54,.77-.54,1.21v17.55c0,.45,.18,.83,.54,1.15,.36,.32,.76,.47,1.21,.47Zm0,40.64h58.18c.45,0,.83-.18,1.15-.54,.31-.36,.47-.76,.47-1.22v-19.3c0-.45-.16-.83-.47-1.15-.32-.31-.7-.47-1.15-.47h-58.18c-.45,0-.86,.16-1.21,.47-.36,.32-.54,.7-.54,1.15v19.3c0,.45,.18,.86,.54,1.22,.36,.36,.76,.54,1.21,.54Z"/><path class="f" d="M1267.34,639.74v-59.81c0-3.33,.85-6.39,2.57-9.18,1.71-2.79,3.98-5.04,6.82-6.75,2.83-1.71,5.92-2.56,9.25-2.56h43.47v17.55h-42.79c-.45,0-.86,.18-1.21,.54-.36,.36-.54,.77-.54,1.21v59h-17.55Z"/><path class="f" d="M1353.2,553.48v-17.69h17.55v17.69h-17.55Zm0,86.27v-78.3h17.55v78.3h-17.55Z"/><path class="f" d="M1406.12,637.18c-2.79-1.71-5.04-3.96-6.75-6.75-1.71-2.79-2.57-5.85-2.57-9.18v-41.31c0-3.33,.85-6.39,2.57-9.18,1.71-2.79,3.96-5.04,6.75-6.75,2.79-1.71,5.85-2.56,9.18-2.56h60.88v17.55h-60.07c-.45,0-.86,.18-1.22,.54-.36,.36-.54,.77-.54,1.21v39.69c0,.45,.18,.86,.54,1.22,.36,.36,.76,.54,1.22,.54h60.21v17.55h-61.02c-3.33,0-6.39-.85-9.18-2.56Z"/><path class="f" d="M1501.03,639.74v-103.95h17.55v55.89h14.17l27.81-30.24h18.9v4.86l-31.18,34.29,31.05,34.29v4.86h-18.76l-27.81-30.24h-14.17v30.24h-17.55Z"/><path class="f" d="M1656.27,553.48v-17.69h17.55v17.69h-17.55Zm0,86.27v-78.3h17.55v78.3h-17.55Z"/><path class="f" d="M1702.98,639.74v-78.3h61.02c3.42,0,6.52,.86,9.32,2.56,2.79,1.71,5.02,3.96,6.68,6.75,1.66,2.79,2.5,5.85,2.5,9.18v59.81h-17.55v-59c0-.45-.18-.85-.54-1.21-.36-.36-.77-.54-1.21-.54h-40.91c-.45,0-.86,.18-1.21,.54-.36,.36-.54,.77-.54,1.21v59h-17.55Z"/><path class="f" d="M1874.3,637.18c-2.79-1.71-5.02-3.96-6.68-6.75-1.67-2.79-2.5-5.85-2.5-9.18v-83.83h17.55v24.03h30.64v17.55h-30.64v41.44c0,.45,.18,.86,.54,1.22,.36,.36,.76,.54,1.21,.54h28.89v17.55h-29.56c-3.51,0-6.66-.85-9.45-2.56Z"/><path class="f" d="M1939.9,639.74v-103.95h17.55v25.65h43.47c3.33,0,6.39,.86,9.18,2.56,2.79,1.71,5.04,3.96,6.75,6.75,1.71,2.79,2.56,5.85,2.56,9.18v59.81h-17.55v-59c0-.45-.18-.85-.54-1.21-.36-.36-.77-.54-1.21-.54h-40.91c-.45,0-.86,.18-1.21,.54-.36,.36-.54,.77-.54,1.21v59h-17.55Z"/><path class="f" d="M2052.36,637.18c-2.79-1.71-5.04-3.96-6.75-6.75-1.71-2.79-2.57-5.85-2.57-9.18v-41.31c0-3.33,.85-6.39,2.57-9.18,1.71-2.79,3.96-5.04,6.75-6.75,2.79-1.71,5.85-2.56,9.18-2.56h42.39c3.42,0,6.55,.83,9.38,2.5,2.83,1.67,5.08,3.92,6.75,6.75,1.66,2.84,2.5,5.92,2.5,9.25v29.56h-61.97v10.94c0,.45,.18,.86,.54,1.22,.36,.36,.76,.54,1.22,.54h60.21v17.55h-61.02c-3.33,0-6.39-.85-9.18-2.56Zm8.23-43.6h44.28v-12.83c0-.45-.16-.85-.47-1.21-.32-.36-.7-.54-1.15-.54h-40.9c-.45,0-.86,.18-1.22,.54-.36,.36-.54,.77-.54,1.21v12.83Z"/><path class="f" d="M2237.98,639.74l-35.37-97.2h18.9l23.49,64.4,23.49-64.4h17.41l23.49,64.4,23.49-64.4h18.9l-35.37,97.2h-14.04l-25.25-68.98-25.25,68.98h-13.91Z"/><path class="f" d="M2389.86,639.74c-3.33,0-6.41-.85-9.25-2.56-2.83-1.71-5.09-3.96-6.75-6.75-1.67-2.79-2.5-5.85-2.5-9.18v-29.56h61.83v-10.94c0-.45-.16-.85-.47-1.21-.32-.36-.7-.54-1.15-.54h-60.21v-17.55h60.89c3.42,0,6.55,.83,9.38,2.5,2.83,1.67,5.08,3.92,6.75,6.75,1.67,2.84,2.5,5.92,2.5,9.25v59.81h-61.02Zm.81-17.55h42.52v-14.58h-44.28v12.82c0,.45,.18,.86,.54,1.22,.36,.36,.76,.54,1.21,.54Z"/><path class="f" d="M2484.9,637.18c-2.79-1.71-5.04-3.96-6.75-6.75-1.71-2.79-2.57-5.85-2.57-9.18v-85.59h17.69v84.78c0,.45,.16,.86,.47,1.22,.31,.36,.7,.54,1.15,.54h14.98v17.55h-15.79c-3.33,0-6.39-.85-9.18-2.56Z"/><path class="f" d="M2543.35,637.18c-2.79-1.71-5.04-3.96-6.75-6.75-1.71-2.79-2.57-5.85-2.57-9.18v-85.59h17.69v84.78c0,.45,.16,.86,.47,1.22,.31,.36,.7,.54,1.15,.54h14.98v17.55h-15.79c-3.33,0-6.39-.85-9.18-2.56Z"/></g><rect class="b" x="357.92" y="3" width="2349" height="1313"/><line class="b" x1="357.92" y1="893.77" x2="2706.92" y2="893.77"/><line class="b" x1="357.92" y1="790.81" x2="2706.92" y2="790.81"/><line class="b" x1="357.92" y1="688.87" x2="2706.92" y2="688.87"/><line class="b" x1="357.92" y1="291.1" x2="2706.92" y2="291.1"/><line class="b" x1="357.92" y1="194.11" x2="2706.92" y2="194.11"/><line class="b" x1="720.37" y1="97.93" x2="720.37" y2="193.97"/><line class="b" x1="1042.29" y1="97.87" x2="1042.29" y2="193.91"/><line class="b" x1="1375.29" y1="97.87" x2="1375.29" y2="193.91"/><line class="b" x1="1727.29" y1="97.87" x2="1727.29" y2="193.91"/><line class="b" x1="2064.29" y1="97.87" x2="2064.29" y2="193.91"/><line class="b" x1="2451.29" y1="97.87" x2="2451.29" y2="193.91"/><line class="b" x1="561.37" y1="193.93" x2="561.37" y2="289.97"/><line class="b" x1="883.29" y1="193.87" x2="883.29" y2="289.91"/><line class="b" x1="1216.29" y1="193.87" x2="1216.29" y2="289.91"/><line class="b" x1="1568.29" y1="193.87" x2="1568.29" y2="289.91"/><line class="b" x1="1905.29" y1="193.87" x2="1905.29" y2="289.91"/><line class="b" x1="2292.29" y1="193.87" x2="2292.29" y2="289.91"/><line class="b" x1="561.37" y1="688.94" x2="561.37" y2="791"/><line class="b" x1="883.29" y1="688.87" x2="883.29" y2="790.94"/><line class="b" x1="1216.29" y1="688.87" x2="1216.29" y2="790.94"/><line class="b" x1="1568.29" y1="688.87" x2="1568.29" y2="790.94"/><line class="b" x1="1905.29" y1="688.87" x2="1905.29" y2="790.94"/><line class="b" x1="2292.29" y1="688.87" x2="2292.29" y2="791"/><line class="b" x1="561.37" y1="895.94" x2="561.37" y2="1002"/><line class="b" x1="884.29" y1="895.87" x2="884.29" y2="1001.93"/><line class="b" x1="1568.29" y1="891.87" x2="1568.29" y2="994"/><line class="b" x1="1905.29" y1="895.87" x2="1905.29" y2="993"/><line class="b" x1="2293.29" y1="895.87" x2="2293.29" y2="1001.93"/><line class="b" x1="720.39" y1="791.06" x2="720.39" y2="892.36"/><line class="b" x1="1042.31" y1="791" x2="1042.31" y2="892.3"/><line class="b" x1="1375.31" y1="791" x2="1375.31" y2="892.3"/><line class="b" x1="1727.31" y1="791" x2="1727.31" y2="892.3"/><line class="b" x1="2064.31" y1="791" x2="2064.31" y2="892.3"/><line class="b" x1="2451.31" y1="791" x2="2451.31" y2="892.3"/><line class="b" x1="357.92" y1="406" x2="943.92" y2="406"/><line class="b" x1="2073.92" y1="406" x2="2706.92" y2="406"/><line class="b" x1="2220.92" y1="509" x2="2706.92" y2="509"/><line class="b" x1="357.92" y1="509" x2="622.92" y2="509"/><line class="b" x1="2451.38" y1="290.1" x2="2451.38" y2="406"/><line class="b" x1="2291.83" y1="409.36" x2="2291.83" y2="505"/><line class="b" x1="564.83" y1="409.36" x2="564.83" y2="505.4"/><line class="b" x1="722.83" y1="294.36" x2="722.83" y2="406"/><rect class="h" x="952.92" y="981" width="200" height="197" rx="12" ry="12"/><polygon class="d" points="1118.28 1076.97 1008.92 1014 1008.92 1139.95 1118.28 1076.97"/><rect class="h" x="2012.43" y="973.68" width="223.17" height="202.11" rx="12" ry="12"/><ellipse class="g" cx="2121.51" cy="1077.42" rx="77.57" ry="73.2"/><line class="e" x1="2097" y1="1065.77" x2="2131.15" y2="1065.77"/><line class="e" x1="2121.13" y1="1072.39" x2="2121.13" y2="1116.69"/><line class="e" x1="2096.99" y1="1121.34" x2="2147.03" y2="1121.34"/><line class="e" x1="2112" y1="1033.5" x2="2130.14" y2="1033.5"/><line class="b" x1="357.92" y1="1004" x2="929.92" y2="1004"/><line class="b" x1="357.92" y1="1106" x2="845.92" y2="1106"/><line class="b" x1="722.75" y1="1004" x2="722.75" y2="1103.2"/><line class="b" x1="1281.92" y1="994" x2="1959.92" y2="994"/><line class="b" x1="1189.92" y1="1106" x2="1933.92" y2="1106"/><line class="b" x1="2273.92" y1="1004" x2="2706.92" y2="1004"/><line class="b" x1="2375.92" y1="1106" x2="2700.92" y2="1106"/><line class="b" x1="1375.13" y1="997.33" x2="1375.13" y2="1103.39"/><line class="b" x1="1727.79" y1="996.7" x2="1727.79" y2="1102.76"/><line class="b" x1="2451.14" y1="1000.7" x2="2451.14" y2="1106.76"/><line class="b" x1="1576.14" y1="1108.7" x2="1576.14" y2="1207"/><line class="b" x1="560.98" y1="1108.12" x2="560.98" y2="1207.33"/><line class="b" x1="1218.98" y1="1108.12" x2="1218.98" y2="1207.33"/><line class="b" x1="1907.98" y1="1104.7" x2="1907.98" y2="1210.76"/></g></g></svg>