<?xml version="1.0" encoding="utf-8"?>
<!-- Generator: Adobe Illustrator 26.2.1, SVG Export Plug-In . SVG Version: 6.00 Build 0)  -->
<svg version="1.1" id="Layer_1" xmlns="http://www.w3.org/2000/svg" xmlns:xlink="http://www.w3.org/1999/xlink" x="0px" y="0px"
	 viewBox="0 0 2880 1800" style="enable-background:new 0 0 2880 1800;" xml:space="preserve">
<style type="text/css">
	.st0{fill:#F3FFE9;stroke:#D500DF;stroke-width:2;stroke-miterlimit:10;}
</style>
<g>
	<path class="st0" d="M920.7,842.4v-99.8h104.1v18.3h-83.2v22.5h67v18.3h-67v40.8L920.7,842.4L920.7,842.4z"/>
	<path class="st0" d="M1049.2,753.8v-18.2h20.5v18.2H1049.2z M1049.2,842.4V762h20.5v80.4H1049.2z"/>
	<path class="st0" d="M1103.6,842.4V762h71.1c4,0,7.6,0.9,10.9,2.6c3.3,1.8,5.8,4.1,7.8,6.9c1.9,2.9,2.9,6,2.9,9.4v61.4h-20.5v-60.6
		c0-0.5-0.2-0.9-0.6-1.2c-0.4-0.4-0.9-0.6-1.4-0.6h-47.7c-0.5,0-1,0.2-1.4,0.6c-0.4,0.4-0.6,0.8-0.6,1.2v60.6L1103.6,842.4
		L1103.6,842.4z"/>
	<path class="st0" d="M1228.8,842.4V735.7h20.5v57.4h16.5l32.4-31h22v5l-36.3,35.2l36.2,35.2v5h-21.9l-32.4-31h-16.5v31h-20.5V842.4
		z"/>
	<path class="st0" d="M1410.4,842.4v-99.7h91.2c4,0,7.7,0.9,11,2.6c3.4,1.8,6,4.1,8,7s3,6.1,3,9.6v26.9c0,3.5-1,6.7-3,9.6
		c-2,2.9-4.7,5.2-8,7c-3.4,1.8-7,2.6-11,2.6l-70.6,0.1v34.1L1410.4,842.4L1410.4,842.4z M1433,789.9h67.8c0.5,0,1-0.2,1.3-0.5
		c0.4-0.3,0.5-0.7,0.5-1.2v-25.5c0-0.5-0.2-0.9-0.5-1.2c-0.4-0.4-0.8-0.6-1.3-0.6H1433c-0.5,0-1,0.2-1.4,0.6
		c-0.4,0.4-0.6,0.8-0.6,1.2v25.5c0,0.5,0.2,0.9,0.6,1.2C1432,789.7,1432.5,789.9,1433,789.9z"/>
	<path class="st0" d="M1560.8,839.8c-3.3-1.8-5.9-4.1-7.9-6.9c-2-2.9-3-6-3-9.4v-87.9h20.6v87c0,0.5,0.2,0.9,0.5,1.3
		s0.8,0.6,1.3,0.6h17.5v18h-18.3C1567.6,842.4,1564,841.5,1560.8,839.8L1560.8,839.8z"/>
	<path class="st0" d="M1628.3,839.8c-3.3-1.8-5.9-4.1-7.9-6.9c-2-2.9-3-6-3-9.4v-42.4c0-3.4,1-6.6,3-9.4c2-2.9,4.6-5.2,7.9-6.9
		c3.3-1.8,6.8-2.6,10.7-2.6h49.4c4,0,7.6,0.9,10.9,2.6s5.9,4,7.9,6.9c1.9,2.9,2.9,6.1,2.9,9.5v42.4c0,3.4-1,6.6-2.9,9.4
		c-1.9,2.9-4.5,5.2-7.8,6.9c-3.3,1.8-6.9,2.6-11,2.6H1639C1635.1,842.4,1631.5,841.5,1628.3,839.8L1628.3,839.8z M1639.9,824.4h47.7
		c0.5,0,1-0.2,1.3-0.6c0.4-0.4,0.5-0.8,0.5-1.3v-40.8c0-0.5-0.2-0.9-0.5-1.2c-0.4-0.4-0.8-0.6-1.3-0.6h-47.7c-0.5,0-1,0.2-1.4,0.6
		s-0.6,0.8-0.6,1.2v40.8c0,0.5,0.2,0.9,0.6,1.3S1639.4,824.4,1639.9,824.4z"/>
	<path class="st0" d="M1755.8,872.2V854h55.1c0.5,0,1-0.2,1.3-0.6c0.4-0.4,0.5-0.8,0.5-1.2v-9.8h-50.5c-4,0-7.6-0.9-10.8-2.6
		c-3.3-1.8-5.9-4.1-7.9-6.9c-2-2.9-3-6-3-9.4v-61.1h20.5v60.3c0,0.5,0.2,0.9,0.6,1.3c0.4,0.4,0.9,0.6,1.4,0.6h47.8
		c0.5,0,1-0.2,1.3-0.6c0.4-0.4,0.5-0.8,0.5-1.3v-60.3h20.5v90.7c0,3.5-0.9,6.7-2.8,9.6s-4.5,5.2-7.8,6.9c-3.3,1.7-6.9,2.6-10.9,2.6
		H1755.8L1755.8,872.2z"/>
	<path class="st0" d="M1871.9,839.8c-3.3-1.8-5.9-4.1-7.9-6.9c-1.9-2.9-2.9-6-2.9-9.4v-42.4c0-3.4,1-6.6,2.9-9.4
		c1.9-2.9,4.5-5.2,7.8-6.9c3.3-1.8,6.9-2.6,11-2.6h50.5v-26.3h20.6v106.7h-71.1C1878.8,842.4,1875.1,841.5,1871.9,839.8
		L1871.9,839.8z M1883.7,824.4h47.7c0.5,0,1-0.2,1.3-0.6c0.4-0.4,0.5-0.8,0.5-1.3v-40.8c0-0.5-0.2-0.9-0.5-1.2
		c-0.4-0.4-0.8-0.6-1.3-0.6h-47.7c-0.5,0-1,0.2-1.4,0.6s-0.6,0.8-0.6,1.2v40.8c0,0.5,0.2,0.9,0.6,1.3S1883.2,824.4,1883.7,824.4z"/>
	<path class="st0" d="M253.7,1064.2v-99.8h104.1v18.3h-83.2v22.4h67v18.3h-67v40.8H253.7L253.7,1064.2z"/>
	<path class="st0" d="M392.9,1061.5c-3.3-1.8-5.9-4.1-7.9-6.9c-2-2.9-3-6-3-9.4v-42.4c0-3.4,1-6.6,3-9.4c2-2.9,4.6-5.2,7.9-6.9
		c3.3-1.8,6.8-2.6,10.7-2.6H453c4,0,7.6,0.9,10.9,2.6s5.9,4,7.9,6.9c1.9,2.9,2.9,6.1,2.9,9.5v30.2h-72.2v11.2c0,0.5,0.2,0.9,0.6,1.3
		s0.9,0.6,1.4,0.6h70.2v18h-71.1C399.7,1064.2,396.1,1063.3,392.9,1061.5L392.9,1061.5z M402.5,1016.8h51.6v-13.2
		c0-0.5-0.2-0.9-0.5-1.2c-0.4-0.4-0.8-0.6-1.3-0.6h-47.8c-0.5,0-1,0.2-1.4,0.6c-0.4,0.4-0.6,0.8-0.6,1.2V1016.8L402.5,1016.8z"/>
	<path class="st0" d="M534.2,1064.2l-35.9-80.4H520l22.3,47.5l23.4-47.5h21.2l25,47.8l20.6-47.8h22l-34.4,80.4h-15.9l-27.7-53.8
		l-26.4,53.8H534.2L534.2,1064.2z"/>
	<path class="st0" d="M689,1061.5c-3.3-1.8-5.9-4.1-7.9-6.9c-2-2.9-3-6-3-9.4v-42.4c0-3.4,1-6.6,3-9.4c2-2.9,4.6-5.2,7.9-6.9
		c3.3-1.8,6.8-2.6,10.7-2.6h49.4c4,0,7.6,0.9,10.9,2.6c3.3,1.7,5.9,4,7.9,6.9c1.9,2.9,2.9,6.1,2.9,9.5v30.2h-72.2v11.2
		c0,0.5,0.2,0.9,0.6,1.3c0.4,0.4,0.9,0.6,1.4,0.6h70.2v18h-71.1C695.8,1064.2,692.2,1063.3,689,1061.5L689,1061.5z M698.5,1016.8
		h51.6v-13.2c0-0.5-0.2-0.9-0.5-1.2c-0.4-0.4-0.8-0.6-1.3-0.6h-47.7c-0.5,0-1,0.2-1.4,0.6c-0.4,0.4-0.6,0.8-0.6,1.2L698.5,1016.8
		L698.5,1016.8z"/>
	<path class="st0" d="M801.9,1064.2v-61.4c0-3.4,1-6.6,3-9.4c2-2.9,4.6-5.2,7.9-6.9c3.3-1.8,6.9-2.6,10.8-2.6h50.7v18h-49.9
		c-0.5,0-1,0.2-1.4,0.6c-0.4,0.4-0.6,0.8-0.6,1.2v60.6L801.9,1064.2L801.9,1064.2z"/>
	<path class="st0" d="M964.7,964.4h86.8c4,0,7.6,0.9,10.9,2.6c3.3,1.7,6,4,7.9,7c2,3,3,6.2,3,9.7v19.5c0,1.2-0.1,2.4-0.3,3.5
		c-0.2,1.1-0.6,2.2-1.1,3.2c1.8,2.2,3.2,4.5,4.3,6.7c1.1,2.3,1.7,4.5,1.7,6.9v21.5c0,3.5-1,6.7-3,9.7s-4.7,5.3-8,7
		c-3.3,1.7-7,2.6-11,2.6h-91.2V964.4L964.7,964.4z M987.4,1004.2h63.2c0.5,0,1-0.2,1.3-0.5c0.4-0.3,0.5-0.7,0.5-1.2v-18
		c0-0.5-0.2-0.9-0.5-1.2c-0.4-0.4-0.8-0.6-1.3-0.6h-63.2c-0.5,0-1,0.2-1.4,0.6s-0.6,0.8-0.6,1.2v18c0,0.5,0.2,0.9,0.6,1.2
		C986.4,1004,986.8,1004.2,987.4,1004.2z M987.4,1045.9h67.8c0.5,0,1-0.2,1.3-0.6c0.4-0.4,0.5-0.8,0.5-1.3v-19.8
		c0-0.5-0.2-0.9-0.5-1.2c-0.4-0.3-0.8-0.5-1.3-0.5h-67.8c-0.5,0-1,0.2-1.4,0.5c-0.4,0.3-0.6,0.7-0.6,1.2v19.9c0,0.5,0.2,0.9,0.6,1.3
		C986.4,1045.7,986.8,1045.9,987.4,1045.9z"/>
	<path class="st0" d="M1110.2,1064.2v-61.4c0-3.4,1-6.6,3-9.4c2-2.9,4.6-5.2,7.9-6.9c3.3-1.8,6.9-2.6,10.8-2.6h50.7v18h-49.9
		c-0.5,0-1,0.2-1.4,0.6s-0.6,0.8-0.6,1.2v60.6L1110.2,1064.2L1110.2,1064.2z"/>
	<path class="st0" d="M1210.3,975.6v-18.2h20.5v18.2H1210.3z M1210.3,1064.2v-80.4h20.5v80.4H1210.3z"/>
	<path class="st0" d="M1271.9,1061.5c-3.3-1.8-5.9-4.1-7.9-6.9c-2-2.9-3-6-3-9.4v-42.4c0-3.4,1-6.6,3-9.4c2-2.9,4.6-5.2,7.9-6.9
		c3.3-1.8,6.8-2.6,10.7-2.6h70.9v18h-70c-0.5,0-1,0.2-1.4,0.6s-0.6,0.8-0.6,1.2v40.8c0,0.5,0.2,0.9,0.6,1.3c0.4,0.4,0.9,0.6,1.4,0.6
		h70.2v18h-71.1C1278.8,1064.2,1275.2,1063.3,1271.9,1061.5L1271.9,1061.5z"/>
	<path class="st0" d="M1382.5,1064.2V957.4h20.5v57.4h16.5l32.4-31h22v5l-36.3,35.2l36.2,35.2v5h-21.9l-32.4-31H1403v31H1382.5
		L1382.5,1064.2z"/>
	<path class="st0" d="M1563.4,975.6v-18.2h20.5v18.2H1563.4z M1563.4,1064.2v-80.4h20.5v80.4H1563.4z"/>
	<path class="st0" d="M1617.9,1064.2v-80.4h71.1c4,0,7.6,0.9,10.9,2.6c3.3,1.8,5.8,4.1,7.8,6.9c1.9,2.9,2.9,6,2.9,9.4v61.4h-20.5
		v-60.6c0-0.5-0.2-0.9-0.6-1.2c-0.4-0.4-0.9-0.6-1.4-0.6h-47.7c-0.5,0-1,0.2-1.4,0.6c-0.4,0.4-0.6,0.8-0.6,1.2v60.6L1617.9,1064.2
		L1617.9,1064.2z"/>
	<path class="st0" d="M1817.5,1061.5c-3.3-1.8-5.8-4.1-7.8-6.9c-1.9-2.9-2.9-6-2.9-9.4v-86.1h20.5v24.7h35.7v18h-35.7v42.5
		c0,0.5,0.2,0.9,0.6,1.3c0.4,0.4,0.9,0.6,1.4,0.6h33.7v18h-34.5C1824.4,1064.2,1820.8,1063.3,1817.5,1061.5L1817.5,1061.5z"/>
	<path class="st0" d="M1893.9,1064.2V957.4h20.5v26.3h50.7c3.9,0,7.4,0.9,10.7,2.6c3.3,1.8,5.9,4.1,7.9,6.9c2,2.9,3,6,3,9.4v61.4
		h-20.5v-60.6c0-0.5-0.2-0.9-0.6-1.2c-0.4-0.4-0.9-0.6-1.4-0.6h-47.7c-0.5,0-1,0.2-1.4,0.6c-0.4,0.4-0.6,0.8-0.6,1.2v60.6h-20.6
		V1064.2z"/>
	<path class="st0" d="M2025,1061.5c-3.3-1.8-5.9-4.1-7.9-6.9s-3-6-3-9.4v-42.4c0-3.4,1-6.6,3-9.4c2-2.9,4.6-5.2,7.9-6.9
		c3.3-1.8,6.8-2.6,10.7-2.6h49.4c4,0,7.6,0.9,10.9,2.6s5.9,4,7.9,6.9c1.9,2.9,2.9,6.1,2.9,9.5v30.2h-72.2v11.2
		c0,0.5,0.2,0.9,0.6,1.3s0.9,0.6,1.4,0.6h70.2v18h-71.1C2031.8,1064.2,2028.2,1063.3,2025,1061.5L2025,1061.5z M2034.6,1016.8h51.6
		v-13.2c0-0.5-0.2-0.9-0.5-1.2c-0.4-0.4-0.8-0.6-1.3-0.6h-47.7c-0.5,0-1,0.2-1.4,0.6c-0.4,0.4-0.6,0.8-0.6,1.2L2034.6,1016.8
		L2034.6,1016.8z"/>
	<path class="st0" d="M2241.3,1064.2l-41.2-99.8h22l27.4,66.1l27.4-66.1h20.3l27.4,66.1l27.4-66.1h22l-41.2,99.8h-16.4l-29.4-70.8
		l-29.4,70.8H2241.3L2241.3,1064.2z"/>
	<path class="st0" d="M2418.3,1064.2c-3.9,0-7.5-0.9-10.8-2.6c-3.3-1.8-5.9-4.1-7.9-6.9c-1.9-2.9-2.9-6-2.9-9.4v-30.4h72v-11.2
		c0-0.5-0.2-0.9-0.5-1.2c-0.4-0.4-0.8-0.6-1.3-0.6h-70.2v-18h71c4,0,7.6,0.9,10.9,2.6c3.3,1.7,5.9,4,7.9,6.9
		c1.9,2.9,2.9,6.1,2.9,9.5v61.4L2418.3,1064.2L2418.3,1064.2z M2419.2,1046.2h49.5v-15h-51.6v13.2c0,0.5,0.2,0.9,0.6,1.3
		C2418.2,1046,2418.7,1046.2,2419.2,1046.2L2419.2,1046.2z"/>
	<path class="st0" d="M2529,1061.5c-3.3-1.8-5.9-4.1-7.9-6.9c-2-2.9-3-6-3-9.4v-87.9h20.6v87c0,0.5,0.2,0.9,0.5,1.3
		c0.3,0.4,0.8,0.6,1.3,0.6h17.5v18h-18.4C2535.8,1064.2,2532.3,1063.3,2529,1061.5L2529,1061.5z"/>
	<path class="st0" d="M2597.1,1061.5c-3.3-1.8-5.9-4.1-7.9-6.9c-2-2.9-3-6-3-9.4v-87.9h20.6v87c0,0.5,0.2,0.9,0.5,1.3
		c0.4,0.4,0.8,0.6,1.3,0.6h17.5v18h-18.4C2604,1064.2,2600.4,1063.3,2597.1,1061.5L2597.1,1061.5z"/>
</g>
</svg>
