<?xml version="1.0" encoding="utf-8"?>
<!-- Generator: Adobe Illustrator 26.2.1, SVG Export Plug-In . SVG Version: 6.00 Build 0)  -->
<!DOCTYPE svg PUBLIC "-//W3C//DTD SVG 1.1//EN" "http://www.w3.org/Graphics/SVG/1.1/DTD/svg11.dtd" [
	<!ENTITY ns_extend "http://ns.adobe.com/Extensibility/1.0/">
	<!ENTITY ns_ai "http://ns.adobe.com/AdobeIllustrator/10.0/">
	<!ENTITY ns_graphs "http://ns.adobe.com/Graphs/1.0/">
	<!ENTITY ns_vars "http://ns.adobe.com/Variables/1.0/">
	<!ENTITY ns_imrep "http://ns.adobe.com/ImageReplacement/1.0/">
	<!ENTITY ns_sfw "http://ns.adobe.com/SaveForWeb/1.0/">
	<!ENTITY ns_custom "http://ns.adobe.com/GenericCustomNamespace/1.0/">
	<!ENTITY ns_adobe_xpath "http://ns.adobe.com/XPath/1.0/">
]>
<svg version="1.1" id="Layer_1" xmlns:x="&ns_extend;" xmlns:i="&ns_ai;" xmlns:graph="&ns_graphs;"
	 xmlns="http://www.w3.org/2000/svg" xmlns:xlink="http://www.w3.org/1999/xlink" x="0px" y="0px" viewBox="0 0 1920 1080"
	 style="enable-background:new 0 0 1920 1080;" xml:space="preserve">
<style type="text/css">
	.st0{fill:#DFDFDF;}
	.st1{fill:#9C9C9C;}
	.st2{enable-background:new    ;}
</style>
<metadata>
	<sfw  xmlns="&ns_sfw;">
		<slices></slices>
		<sliceSourceBounds  bottomLeftOrigin="true" height="781.1" width="984.4" x="468" y="-898.2"></sliceSourceBounds>
	</sfw>
</metadata>
<g>
	<g>
		<g>
			<path class="st0" d="M893.3,305.2L893,425.1c0,1.4,0.5,2.6,1.5,3.4s2.1,1.3,3.4,1.1l18.2-2.6l0,19.4l-18.7,2.6
				c-4,0.6-7.8,0-11.2-1.8c-3.4-1.7-6.2-4.3-8.3-7.6c-2.1-3.3-3.1-7.2-3.1-11.5l0.2-120.4L893.3,305.2z"/>
		</g>
		<g>
			<path class="st1" d="M897.9,428.6L917,426l0,21.4l-19.6,2.8c-4.2,0.6-8.1,0-11.7-1.8c-3.5-1.8-6.4-4.5-8.6-7.9
				c-2.1-3.5-3.2-7.5-3.2-12l0.2-121.4l20-2.8l-0.2,120.8c0,1.1,0.4,2.1,1.2,2.8C895.9,428.5,896.8,428.8,897.9,428.6z M916,446.5
				l0-19.4l-18.2,2.6c-1.3,0.2-2.5-0.2-3.4-1.1c-1-0.9-1.5-2.1-1.5-3.4l0.2-119.8l-18.3,2.6l-0.2,120.4c0,4.3,1,8.2,3.1,11.5
				c2.1,3.3,4.9,5.9,8.3,7.6c3.4,1.7,7.2,2.3,11.2,1.8L916,446.5"/>
		</g>
		<g>
			<path class="st1" d="M963.2,610.1l0-21.3l67-9.4l0,26.5l-62.1,8.7c-1.3,0.2-2.4-0.2-3.4-1.1C963.6,612.6,963.1,611.5,963.2,610.1
				z M964.1,589.7l0,20.3c0,1.1,0.4,2.1,1.2,2.8c0.8,0.8,1.7,1,2.8,0.9l61.2-8.6l0-24.5L964.1,589.7"/>
		</g>
		<g>
			<path class="st0" d="M1045.7,526.7c2,3.3,3,7.2,3,11.5l-0.2,84.5l-81.1,11.4c-4.2,0.6-8,0-11.4-1.7c-3.4-1.7-6.2-4.3-8.2-7.7
				c-2-3.3-3-7.2-3-11.5l0.1-39.9l85.3-12l0-19.9c0-1.4-0.5-2.5-1.4-3.4c-0.9-0.9-2-1.3-3.3-1.1L945,548.1l0-19.4l81.1-11.4
				c4.1-0.6,8,0,11.4,1.7C1040.9,520.8,1043.7,523.3,1045.7,526.7z M1030.1,605.9l0-26.5l-67,9.4l0,21.3c0,1.4,0.5,2.6,1.5,3.4
				c1,0.9,2.1,1.3,3.4,1.1L1030.1,605.9"/>
		</g>
		<g>
			<path class="st0" d="M1180.4,495.6c4.1-0.6,8,0,11.4,1.7c3.4,1.7,6.1,4.3,8.2,7.7c2,3.3,3,7.2,3,11.5l-0.2,84.5l-18.3,2.6
				l0.2-83.9c0-1.4-0.5-2.6-1.5-3.4c-1-0.9-2.1-1.3-3.4-1.1l-57.4,8.1c-1.3,0.2-2.4,0.9-3.4,2c-1,1.2-1.5,2.5-1.5,3.9l-0.2,83.9
				l-18.3,2.6l0.2-108.6L1180.4,495.6z"/>
		</g>
		<g class="st2">
			<g>
				<polygon class="st0" points="1064.1,620.5 1064.4,511.9 1082.6,509.4 1082.4,617.9 				"/>
			</g>
			<g>
				<path class="st1" d="M1063.3,621.6l0.2-110.5l20-2.8l-0.2,110.5L1063.3,621.6z M1064.4,511.9l-0.2,108.6l18.3-2.6l0.2-108.6
					L1064.4,511.9"/>
			</g>
			<g>
				<path class="st1" d="M1129.2,307.4l20-2.8l-0.2,127c0,4.6-1.1,9-3.2,13.1c-2.1,4.1-5,7.5-8.5,10.2c-3.6,2.7-7.5,4.4-11.8,5
					l-63.9,9l0-21.5l63.4-8.9c1.1-0.1,2-0.7,2.8-1.7c0.8-1,1.2-2,1.2-3.1l0-16.1l-62,8.7c-4.2,0.6-8.1,0-11.7-1.8
					c-3.6-1.8-6.5-4.5-8.6-7.9c-2.1-3.5-3.1-7.5-3.1-12l0.2-85.1l20-2.8l-0.2,84.5c0,1.1,0.4,2.1,1.2,2.8c0.8,0.7,1.7,1,2.8,0.9
					l57.4-8.1c1.1-0.1,2-0.7,2.8-1.7c0.8-1,1.2-2,1.2-3.1L1129.2,307.4z M1148.1,431.7l0.2-126.1l-18.2,2.6l-0.2,83.6
					c0,1.4-0.5,2.7-1.5,3.9c-1,1.2-2.1,1.9-3.4,2l-57.4,8.1c-1.3,0.2-2.5-0.2-3.4-1.1c-1-0.9-1.5-2.1-1.5-3.4l0.2-83.6l-18.3,2.6
					l-0.2,84.1c0,4.3,1,8.2,3,11.5c2,3.3,4.8,5.9,8.3,7.6c3.5,1.7,7.3,2.3,11.3,1.7l62.8-8.8l0,17.1c0,1.4-0.5,2.7-1.5,3.9
					c-1,1.2-2.1,1.9-3.4,2l-62.5,8.8l0,19.6l63-8.9c4.1-0.6,8-2.2,11.4-4.8c3.4-2.6,6.2-6,8.2-9.9
					C1147,440.4,1148,436.1,1148.1,431.7"/>
			</g>
			<g>
				<path class="st1" d="M808.8,532.9c2.1,3.5,3.1,7.6,3.1,12.2L811.7,657l-20.2,2.8l0.1-47.6l-88.3,12.4l-0.1,47.6l-20,2.8
					l0.2-111.9c0-4.6,1.1-9,3.2-13.1c2.1-4.1,5-7.5,8.5-10.2c3.5-2.7,7.5-4.4,11.8-5l81.4-11.4c4.3-0.6,8.3,0,11.9,1.7
					C803.8,526.8,806.7,529.4,808.8,532.9z M810.8,656.1l0.2-111c0-4.4-1-8.4-3-11.7c-2-3.3-4.8-5.9-8.3-7.5
					c-3.5-1.7-7.3-2.2-11.5-1.6l-81.4,11.4c-4.2,0.6-8,2.2-11.4,4.8c-3.4,2.6-6.2,5.9-8.2,9.9c-2,3.9-3.1,8.1-3.1,12.5l-0.2,111
					l18.3-2.6l0.1-47.6l90.1-12.7l-0.1,47.6L810.8,656.1"/>
			</g>
			<g>
				<path class="st0" d="M808,533.5c2,3.3,3,7.3,3,11.7l-0.2,111l-18.4,2.6l0.1-47.6l-90.1,12.7l-0.1,47.6l-18.3,2.6l0.2-111
					c0-4.4,1-8.6,3.1-12.5c2-3.9,4.8-7.2,8.2-9.9c3.4-2.6,7.2-4.3,11.4-4.8l81.4-11.4c4.2-0.6,8,0,11.5,1.6
					C803.2,527.6,806,530.1,808,533.5z M792.5,591.7l0.1-43.4c0-1.4-0.5-2.5-1.4-3.4c-0.9-0.9-2-1.3-3.3-1.1l-80.5,11.3
					c-1.3,0.2-2.4,0.9-3.4,2c-1,1.2-1.5,2.5-1.5,3.9l-0.1,43.4L792.5,591.7"/>
			</g>
			<g>
				<path class="st1" d="M787.9,543.8c1.3-0.2,2.4,0.2,3.3,1.1c0.9,0.9,1.4,2.1,1.4,3.4l-0.1,43.4l-90.1,12.7l0.1-43.4
					c0-1.4,0.5-2.7,1.5-3.9c1-1.2,2.1-1.9,3.4-2L787.9,543.8z M791.6,590.8l0.1-42.4c0-1.1-0.4-2.1-1.1-2.8c-0.7-0.8-1.6-1-2.7-0.9
					L707.4,556c-1.1,0.2-2,0.7-2.8,1.7c-0.8,1-1.2,2-1.2,3.1l-0.1,42.4L791.6,590.8"/>
			</g>
			<g>
				<path class="st0" d="M862.9,331.3c2,3.3,3,7.2,3,11.5l-0.1,38.2c0,4.4-1,8.6-3.1,12.6c-2,3.9-4.8,7.2-8.3,9.9
					c-3.5,2.6-7.3,4.3-11.5,4.9l-85.7,12.2l-0.1,48.3l-18.2,2.6l0.3-134.8l104-14.6c4.1-0.6,8,0,11.5,1.7
					C858.1,325.4,860.9,327.9,862.9,331.3z M847.4,383l0.1-37c0-1.4-0.5-2.5-1.4-3.4c-0.9-0.9-2-1.3-3.3-1.1l-80.5,11.3
					c-1.3,0.2-2.4,0.9-3.4,2c-1,1.2-1.5,2.5-1.5,3.9l-0.1,37c0,1.4,0.5,2.5,1.5,3.4c1,0.8,2.1,1.2,3.4,1l80.5-11.3
					c1.3-0.2,2.4-0.8,3.3-1.9C846.9,385.6,847.4,384.3,847.4,383"/>
			</g>
			<g>
				<path class="st1" d="M469.2,255.3l983.2-138.2l-1.2,642.9L468,898.2L469.2,255.3z M1450.3,759.2l1.2-641L470.1,256.1l-1.2,641
					L1450.3,759.2"/>
			</g>
			<g>
				<path class="st0" d="M1148.3,305.7l-0.2,126.1c0,4.4-1,8.6-3.1,12.5s-4.8,7.2-8.2,9.9c-3.4,2.6-7.2,4.3-11.4,4.8l-63,8.9l0-19.6
					l62.5-8.8c1.3-0.2,2.4-0.9,3.4-2c1-1.2,1.5-2.5,1.5-3.9l0-17.1l-62.8,8.8c-4,0.6-7.8,0-11.3-1.7c-3.5-1.7-6.2-4.3-8.3-7.6
					c-2-3.3-3-7.2-3-11.5l0.2-84.1l18.3-2.6l-0.2,83.6c0,1.4,0.5,2.6,1.5,3.4c1,0.9,2.1,1.3,3.4,1.1l57.4-8.1c1.3-0.2,2.4-0.9,3.4-2
					c1-1.2,1.5-2.5,1.5-3.9l0.2-83.6L1148.3,305.7z"/>
			</g>
			<g>
				<path d="M762.2,399c-1.1,0.2-2-0.1-2.8-0.8c-0.8-0.7-1.2-1.6-1.2-2.7l0.1-37c0-1.1,0.4-2.2,1.2-3.1c0.8-1,1.7-1.5,2.8-1.7
					l80.5-11.3c1.1-0.1,1.9,0.1,2.7,0.9c0.8,0.8,1.1,1.7,1.1,2.8l-0.1,37c0,1.1-0.4,2.1-1.1,3c-0.8,0.9-1.6,1.4-2.7,1.6L762.2,399z"
					/>
			</g>
			<g>
				<path class="st1" d="M863.7,330.7c2.1,3.5,3.1,7.5,3.1,12l-0.1,38.2c0,4.6-1.1,9-3.2,13.1c-2.1,4.1-5,7.5-8.6,10.2
					c-3.6,2.7-7.6,4.4-11.9,5l-84.8,12.1l-0.1,48.3l-20,2.8l0.3-136.8L843.2,321c4.3-0.6,8.3,0,11.9,1.8
					C858.7,324.5,861.6,327.2,863.7,330.7z M865.8,380.9l0.1-38.2c0-4.3-1-8.2-3-11.5c-2-3.3-4.8-5.9-8.3-7.6
					c-3.5-1.7-7.3-2.3-11.5-1.7l-104,14.6L739,471.4l18.2-2.6l0.1-48.3l85.7-12.2c4.2-0.6,8-2.2,11.5-4.9c3.5-2.6,6.2-6,8.3-9.9
					C864.8,389.6,865.8,385.4,865.8,380.9"/>
			</g>
		</g>
		<g>
			<path d="M964,609.9l0-20.3l65.2-9.2l0,24.5l-61.2,8.6c-1.1,0.1-2-0.1-2.8-0.9C964.4,612,964,611.1,964,609.9z"/>
		</g>
		<g>
			<path class="st0" d="M1027.7,334.4c2,3.3,3,7.2,3,11.5l-0.2,84.5l-81.1,11.4c-4.1,0.6-8,0-11.4-1.7c-3.4-1.7-6.2-4.3-8.2-7.7
				c-2-3.3-3-7.2-3-11.5l0.1-39.9l85.3-12l0-19.9c0-1.4-0.5-2.5-1.4-3.4c-0.9-0.9-2-1.3-3.3-1.1L927,355.8l0-19.4l81.1-11.4
				c4.1-0.6,8,0,11.4,1.7C1022.9,328.4,1025.7,331,1027.7,334.4z M1012.2,413.5l0-26.5l-67,9.4l0,21.3c0,1.4,0.5,2.6,1.5,3.4
				c1,0.9,2.1,1.3,3.4,1.1L1012.2,413.5"/>
		</g>
		<g>
			<path class="st1" d="M945.2,417.8l0-21.3l67-9.4l0,26.5l-62.1,8.7c-1.3,0.2-2.5-0.2-3.4-1.1C945.6,420.3,945.2,419.1,945.2,417.8
				z M946.1,397.3l0,20.3c0,1.1,0.4,2.1,1.2,2.8c0.8,0.7,1.7,1,2.8,0.9l61.2-8.6l0-24.5L946.1,397.3"/>
		</g>
		<g>
			<path class="st1" d="M1028.5,333.8c2.1,3.5,3.2,7.5,3.1,12l-0.2,85.5l-82,11.5c-4.3,0.6-8.3,0-11.8-1.8c-3.5-1.8-6.4-4.5-8.5-7.9
				c-2.1-3.5-3.1-7.5-3.1-12l0.1-40.9l85.3-12l0-19c0-1.1-0.4-2.1-1.1-2.8c-0.8-0.7-1.6-1-2.7-0.9l-81.5,11.4l0-21.4l82-11.5
				c4.3-0.6,8.3,0,11.8,1.8C1023.5,327.6,1026.4,330.3,1028.5,333.8z M1030.6,430.4l0.2-84.5c0-4.3-1-8.2-3-11.5
				c-2-3.3-4.8-5.9-8.2-7.7c-3.4-1.7-7.2-2.3-11.4-1.7l-81.1,11.4l0,19.4l80.6-11.3c1.3-0.2,2.4,0.2,3.3,1.1
				c0.9,0.9,1.4,2.1,1.4,3.4l0,19.9l-85.3,12l-0.1,39.9c0,4.3,1,8.2,3,11.5c2,3.3,4.8,5.9,8.2,7.7c3.4,1.7,7.2,2.3,11.4,1.7
				L1030.6,430.4"/>
		</g>
		<g>
			<path d="M1011.3,412.7l-61.2,8.6c-1.1,0.2-2-0.1-2.8-0.9c-0.8-0.7-1.2-1.7-1.2-2.8l0-20.3l65.2-9.2L1011.3,412.7z"/>
		</g>
		<g class="st2">
			<g>
				<path d="M906.3,554.5c1.1-0.2,2,0.1,2.8,0.9c0.8,0.7,1.2,1.7,1.2,2.8l-0.1,59.3c0,1.1-0.4,2.2-1.2,3.1c-0.8,1-1.7,1.5-2.8,1.7
					l-57.4,8.1c-1.1,0.2-2-0.1-2.8-0.9c-0.8-0.7-1.2-1.7-1.2-2.8l0.1-59.3c0-1.1,0.4-2.2,1.2-3.1c0.8-1,1.7-1.5,2.8-1.7L906.3,554.5
					z"/>
			</g>
			<g>
				<path class="st1" d="M927.2,542.8c2.1,3.5,3.1,7.5,3.1,12l-0.2,103.7c0,4.6-1.1,9-3.2,13.1c-2.1,4.1-5,7.5-8.5,10.2
					c-3.5,2.7-7.5,4.4-11.8,5l-63.9,9l0-21.5l63.4-8.9c1.1-0.2,2-0.7,2.8-1.7c0.8-1,1.2-2,1.2-3.1l0-17.5l-62,8.7
					c-4.2,0.6-8.2,0-11.7-1.8c-3.6-1.8-6.5-4.5-8.6-7.9c-2.1-3.5-3.1-7.5-3.1-12l0.1-60.4c0-4.5,1.1-8.8,3.3-12.9
					c2.2-4.1,5.1-7.5,8.6-10.3c3.5-2.8,7.5-4.5,11.7-5.1l58.5-8.2c4.3-0.6,8.3,0,11.8,1.8C922.2,536.7,925.1,539.4,927.2,542.8z
					 M929.2,658.7l0.2-103.7c0-4.3-1-8.2-3-11.5c-2-3.3-4.8-5.9-8.2-7.7c-3.4-1.7-7.2-2.3-11.4-1.7l-58.5,8.2
					c-4,0.6-7.8,2.2-11.2,4.9c-3.4,2.7-6.2,6-8.3,10c-2.1,3.9-3.1,8.1-3.1,12.4l-0.1,60.4c0,4.3,1,8.2,3,11.5c2,3.3,4.8,5.9,8.3,7.6
					c3.5,1.7,7.3,2.3,11.3,1.7L911,642l0,18.4c0,1.4-0.5,2.7-1.5,3.9c-1,1.2-2.1,1.9-3.4,2l-62.5,8.8l0,19.6l63-8.9
					c4.1-0.6,8-2.2,11.4-4.8c3.4-2.6,6.2-6,8.2-9.9C928.2,667.3,929.2,663.1,929.2,658.7"/>
			</g>
			<g>
				<path class="st0" d="M926.4,543.4c2,3.3,3,7.2,3,11.5l-0.2,103.7c0,4.4-1,8.6-3.1,12.5c-2,3.9-4.8,7.2-8.2,9.9
					c-3.4,2.6-7.2,4.3-11.4,4.8l-63,8.9l0-19.6l62.5-8.8c1.3-0.2,2.4-0.9,3.4-2c1-1.2,1.5-2.5,1.5-3.9l0-18.4l-62.8,8.8
					c-4,0.6-7.8,0-11.3-1.7c-3.5-1.7-6.2-4.3-8.3-7.6c-2-3.3-3-7.2-3-11.5l0.1-60.4c0-4.3,1.1-8.5,3.1-12.4c2.1-3.9,4.9-7.3,8.3-10
					c3.4-2.7,7.2-4.3,11.2-4.9l58.5-8.2c4.1-0.6,8,0,11.4,1.7C921.6,537.5,924.4,540.1,926.4,543.4z M911,617.4l0.1-59.3
					c0-1.4-0.5-2.6-1.5-3.4c-1-0.9-2.1-1.3-3.4-1.1l-57.4,8.1c-1.3,0.2-2.4,0.9-3.4,2c-1,1.2-1.5,2.5-1.5,3.9l-0.1,59.3
					c0,1.4,0.5,2.5,1.5,3.4c1,0.9,2.1,1.3,3.4,1.1l57.4-8.1c1.3-0.2,2.5-0.9,3.4-2C910.5,620.1,911,618.8,911,617.4"/>
			</g>
		</g>
		<g>
			<path d="M787.9,544.7c1.1-0.1,1.9,0.1,2.7,0.9c0.8,0.8,1.1,1.7,1.1,2.8l-0.1,42.4l-88.3,12.4l0.1-42.4c0-1.1,0.4-2.2,1.2-3.1
				c0.8-1,1.7-1.5,2.8-1.7L787.9,544.7z"/>
		</g>
		<g>
			<path class="st1" d="M842.8,341.4c1.3-0.2,2.4,0.2,3.3,1.1c0.9,0.9,1.4,2.1,1.4,3.4l-0.1,37c0,1.4-0.5,2.6-1.4,3.7
				c-0.9,1.1-2,1.7-3.3,1.9L762.2,400c-1.3,0.2-2.4-0.2-3.4-1c-1-0.8-1.5-2-1.5-3.4l0.1-37c0-1.4,0.5-2.7,1.5-3.9
				c1-1.2,2.1-1.9,3.4-2L842.8,341.4z M846.5,383.1l0.1-37c0-1.1-0.4-2.1-1.1-2.8c-0.7-0.7-1.6-1-2.7-0.9l-80.5,11.3
				c-1.1,0.1-2,0.7-2.8,1.7c-0.8,1-1.2,2-1.2,3.1l-0.1,37c0,1.1,0.4,2,1.2,2.7c0.8,0.7,1.7,1,2.8,0.8l80.5-11.3
				c1.1-0.2,2-0.7,2.7-1.6C846.2,385.2,846.5,384.2,846.5,383.1"/>
		</g>
		<g>
			<path class="st1" d="M906.3,553.6c1.3-0.2,2.4,0.2,3.4,1.1c1,0.9,1.5,2.1,1.5,3.4l-0.1,59.3c0,1.4-0.5,2.7-1.5,3.9
				c-1,1.2-2.1,1.9-3.4,2l-57.4,8.1c-1.3,0.2-2.4-0.2-3.4-1.1c-1-0.9-1.5-2.1-1.5-3.4l0.1-59.3c0-1.4,0.5-2.7,1.5-3.9
				c1-1.2,2.1-1.9,3.4-2L906.3,553.6z M910.1,617.5l0.1-59.3c0-1.1-0.4-2.1-1.2-2.8c-0.8-0.8-1.7-1-2.8-0.9l-57.4,8.1
				c-1.1,0.2-2,0.7-2.8,1.7c-0.8,1-1.2,2-1.2,3.1l-0.1,59.3c0,1.1,0.4,2.1,1.2,2.8c0.8,0.8,1.7,1,2.8,0.9l57.4-8.1
				c1.1-0.2,2-0.7,2.8-1.7C909.8,619.7,910.1,618.7,910.1,617.5"/>
		</g>
		<g>
			<path class="st1" d="M1063.5,475.2l20-2.8l0,21.4l-20,2.8L1063.5,475.2z M1082.6,492.9l0-19.4l-18.3,2.6l0,19.4L1082.6,492.9"/>
		</g>
		<g>
			<polygon class="st0" points="1064.4,476 1082.7,473.5 1082.6,492.9 1064.4,495.5 			"/>
		</g>
		<g>
			<path class="st1" d="M1200.7,504.4c2.1,3.5,3.1,7.5,3.1,12l-0.2,85.5l-20,2.8l0.2-84.9c0-1.1-0.4-2.1-1.2-2.8
				c-0.8-0.8-1.7-1-2.8-0.9l-57.4,8.1c-1.1,0.1-2,0.7-2.8,1.7c-0.8,1-1.2,2-1.2,3.1l-0.2,84.9l-20,2.8l0.2-110.5l82-11.5
				c4.3-0.6,8.3,0,11.8,1.8C1195.7,498.3,1198.6,500.9,1200.7,504.4z M1202.8,601l0.2-84.5c0-4.3-1-8.2-3-11.5
				c-2-3.3-4.8-5.9-8.2-7.7c-3.4-1.7-7.2-2.3-11.4-1.7l-81.1,11.4l-0.2,108.6l18.3-2.6l0.2-83.9c0-1.4,0.5-2.7,1.5-3.9
				c1-1.2,2.1-1.9,3.4-2l57.4-8.1c1.3-0.2,2.5,0.2,3.4,1.1c1,0.9,1.5,2.1,1.5,3.4l-0.2,83.9L1202.8,601"/>
		</g>
		<g>
			<path d="M470.1,256.1l981.4-137.9l-1.2,641L468.9,897.1L470.1,256.1z M811.7,657l0.2-111.9c0-4.6-1-8.7-3.1-12.2
				c-2.1-3.5-5-6.1-8.6-7.8c-3.6-1.7-7.6-2.3-11.9-1.7l-81.4,11.4c-4.3,0.6-8.3,2.3-11.8,5c-3.5,2.7-6.4,6.2-8.5,10.2
				c-2.1,4.1-3.2,8.5-3.2,13.1L683.2,675l20-2.8l0.1-47.6l88.3-12.4l-0.1,47.6L811.7,657 M738.3,335.7l-0.3,136.8l20-2.8l0.1-48.4
				l84.8-12.1c4.3-0.6,8.3-2.3,11.9-5c3.6-2.7,6.5-6.2,8.6-10.3c2.1-4.1,3.2-8.5,3.2-13.1l0.1-38.2c0-4.5-1.1-8.5-3.1-12
				c-2.1-3.5-5-6.1-8.6-7.9c-3.6-1.8-7.6-2.4-11.9-1.8L738.3,335.7 M930.1,658.5l0.2-103.7c0-4.5-1.1-8.5-3.1-12
				c-2.1-3.5-4.9-6.1-8.5-7.9c-3.5-1.8-7.5-2.4-11.8-1.8l-58.5,8.2c-4.2,0.6-8.1,2.3-11.7,5.1c-3.5,2.8-6.4,6.3-8.6,10.3
				c-2.2,4.1-3.3,8.4-3.3,12.9l-0.1,60.4c0,4.5,1.1,8.5,3.1,12c2.1,3.5,5,6.1,8.6,7.9c3.6,1.8,7.5,2.4,11.7,1.8l62-8.7l0,17.5
				c0,1.1-0.4,2.2-1.2,3.1c-0.8,1-1.7,1.5-2.8,1.7l-63.4,8.9l0,21.5l63.9-9c4.3-0.6,8.3-2.3,11.8-5c3.5-2.7,6.4-6.2,8.5-10.2
				C929,667.5,930.1,663.1,930.1,658.5 M1067,426.2l62-8.7l0,16.1c0,1.1-0.4,2.2-1.2,3.1c-0.8,1-1.7,1.5-2.8,1.7l-63.4,8.9l0,21.5
				l63.9-9c4.3-0.6,8.3-2.3,11.8-5c3.5-2.7,6.4-6.2,8.5-10.2c2.1-4.1,3.2-8.5,3.2-13.1l0.2-127l-20,2.8l-0.2,84.5
				c0,1.1-0.4,2.2-1.2,3.1c-0.8,1-1.7,1.5-2.8,1.7l-57.4,8.1c-1.1,0.2-2-0.1-2.8-0.9c-0.8-0.7-1.2-1.7-1.2-2.8l0.2-84.5l-20,2.8
				l-0.2,85.1c0,4.5,1.1,8.5,3.1,12c2.1,3.5,5,6.1,8.6,7.9C1058.8,426.2,1062.8,426.8,1067,426.2 M1049.4,623.5l0.2-85.5
				c0-4.5-1.1-8.5-3.1-12c-2.1-3.5-4.9-6.1-8.5-7.9c-3.5-1.8-7.5-2.4-11.8-1.8l-82,11.5l0,21.4l81.5-11.4c1.1-0.1,1.9,0.1,2.7,0.9
				c0.8,0.8,1.1,1.7,1.1,2.8l0,19l-85.3,12l-0.1,40.9c0,4.5,1.1,8.5,3.1,12c2.1,3.5,4.9,6.1,8.5,7.9c3.5,1.8,7.5,2.4,11.8,1.8
				L1049.4,623.5 M1203.7,601.9l0.2-85.5c0-4.5-1-8.5-3.1-12c-2.1-3.5-4.9-6.1-8.5-7.9c-3.5-1.8-7.5-2.4-11.8-1.8l-82,11.5
				l-0.2,110.5l20-2.8l0.2-84.9c0-1.1,0.4-2.2,1.2-3.1c0.8-1,1.7-1.5,2.8-1.7l57.4-8.1c1.1-0.2,2,0.1,2.8,0.9
				c0.8,0.7,1.2,1.7,1.2,2.8l-0.2,84.9L1203.7,601.9 M929.2,433c2.1,3.5,4.9,6.1,8.5,7.9c3.5,1.8,7.5,2.4,11.8,1.8l82-11.5l0.2-85.5
				c0-4.5-1.1-8.5-3.2-12c-2.1-3.5-4.9-6.1-8.5-7.9c-3.5-1.8-7.5-2.4-11.8-1.8l-82,11.5l0,21.4l81.5-11.4c1.1-0.1,1.9,0.1,2.7,0.9
				c0.8,0.8,1.1,1.7,1.1,2.8l0,19l-85.3,12L926,421C926,425.5,927.1,429.5,929.2,433 M874.1,307l-0.2,121.4c0,4.5,1.1,8.5,3.2,12
				c2.2,3.5,5,6.1,8.6,7.9c3.5,1.8,7.5,2.4,11.7,1.8l19.6-2.8l0-21.4l-19.1,2.7c-1.1,0.2-2-0.1-2.8-0.9c-0.8-0.7-1.2-1.7-1.2-2.8
				l0.2-120.8L874.1,307 M1083.3,618.8l0.2-110.5l-20,2.8l-0.2,110.5L1083.3,618.8 M1083.5,493.7l0-21.4l-20,2.8l0,21.4
				L1083.5,493.7"/>
		</g>
		<g>
			<path class="st1" d="M1046.5,526.1c2.1,3.5,3.2,7.5,3.1,12l-0.2,85.5l-82,11.5c-4.3,0.6-8.3,0-11.8-1.8c-3.5-1.8-6.4-4.5-8.5-7.9
				c-2.1-3.5-3.1-7.5-3.1-12l0.1-40.9l85.3-12l0-19c0-1.1-0.4-2.1-1.1-2.8c-0.7-0.7-1.6-1-2.7-0.9l-81.5,11.4l0-21.4l82-11.5
				c4.3-0.6,8.3,0,11.8,1.8C1041.5,519.9,1044.4,522.6,1046.5,526.1z M1048.5,622.7l0.2-84.5c0-4.3-1-8.2-3-11.5
				c-2-3.3-4.8-5.9-8.2-7.7c-3.4-1.7-7.2-2.3-11.4-1.7l-81.1,11.4l0,19.4l80.6-11.3c1.3-0.2,2.4,0.2,3.3,1.1
				c0.9,0.9,1.4,2.1,1.4,3.4l0,19.9l-85.3,12l-0.1,39.9c0,4.3,1,8.2,3,11.5c2,3.3,4.8,5.9,8.2,7.7c3.4,1.7,7.2,2.3,11.4,1.7
				L1048.5,622.7"/>
		</g>
	</g>
</g>
</svg>
