<?xml version="1.0" encoding="utf-8"?>
<!-- Generator: Adobe Illustrator 26.2.1, SVG Export Plug-In . SVG Version: 6.00 Build 0)  -->
<svg version="1.1" id="a" xmlns="http://www.w3.org/2000/svg" xmlns:xlink="http://www.w3.org/1999/xlink" x="0px" y="0px"
	 viewBox="0 0 2737.2 1366.5" style="enable-background:new 0 0 2737.2 1366.5;" xml:space="preserve">
<style type="text/css">
	.st0{fill:#150300;stroke:#000000;stroke-width:2;stroke-miterlimit:10;}
	.st1{fill:none;stroke:#FF0AF4;stroke-width:6;stroke-miterlimit:10;}
</style>
<rect x="0" y="9.2" class="st0" width="2737.2" height="1348.1"/>
<g>
	<line class="st1" x1="0" y1="1247.4" x2="2737.2" y2="1247.4"/>
	<line class="st1" x1="0" y1="106.9" x2="2737.2" y2="106.9"/>
	<line class="st1" x1="237.7" y1="8.2" x2="237.7" y2="106.8"/>
	<line class="st1" x1="612.8" y1="8.2" x2="612.8" y2="106.8"/>
	<line class="st1" x1="1000.9" y1="8.2" x2="1000.9" y2="106.8"/>
	<line class="st1" x1="1411" y1="8.2" x2="1411" y2="106.8"/>
	<line class="st1" x1="1803.7" y1="8.2" x2="1803.7" y2="106.8"/>
	<line class="st1" x1="2254.7" y1="8.2" x2="2254.7" y2="106.8"/>
	<line class="st1" x1="422.4" y1="1247.5" x2="422.4" y2="1356.4"/>
	<line class="st1" x1="810.3" y1="1249.5" x2="810.3" y2="1358.4"/>
	<line class="st1" x1="1185.5" y1="1247.4" x2="1185.5" y2="1356.3"/>
	<line class="st1" x1="1596.9" y1="1247.4" x2="1596.9" y2="1356.3"/>
	<line class="st1" x1="1988.4" y1="1247.4" x2="1988.4" y2="1356.3"/>
	<line class="st1" x1="2439.4" y1="1247.4" x2="2439.4" y2="1356.3"/>
	<rect y="9.3" class="st1" width="2737.2" height="1348.1"/>
	<line class="st1" x1="0" y1="923.9" x2="2737.2" y2="923.9"/>
	<line class="st1" x1="0" y1="818.2" x2="2737.2" y2="818.2"/>
	<line class="st1" x1="0" y1="713.5" x2="2737.2" y2="713.5"/>
	<line class="st1" x1="0" y1="305.1" x2="2737.2" y2="305.1"/>
	<line class="st1" x1="0" y1="205.5" x2="2737.2" y2="205.5"/>
	<line class="st1" x1="422.4" y1="106.8" x2="422.4" y2="205.4"/>
	<line class="st1" x1="797.5" y1="106.7" x2="797.5" y2="205.3"/>
	<line class="st1" x1="1185.5" y1="106.7" x2="1185.5" y2="205.3"/>
	<line class="st1" x1="1595.7" y1="106.7" x2="1595.7" y2="205.3"/>
	<line class="st1" x1="1988.4" y1="106.7" x2="1988.4" y2="205.3"/>
	<line class="st1" x1="2439.4" y1="106.7" x2="2439.4" y2="205.3"/>
	<line class="st1" x1="237.1" y1="205.3" x2="237.1" y2="303.9"/>
	<line class="st1" x1="612.2" y1="205.3" x2="612.2" y2="303.9"/>
	<line class="st1" x1="1000.2" y1="205.3" x2="1000.2" y2="303.9"/>
	<line class="st1" x1="1410.4" y1="205.3" x2="1410.4" y2="303.9"/>
	<line class="st1" x1="1803.1" y1="205.3" x2="1803.1" y2="303.9"/>
	<line class="st1" x1="2254.1" y1="205.3" x2="2254.1" y2="303.9"/>
	<line class="st1" x1="237.1" y1="713.6" x2="237.1" y2="818.4"/>
	<line class="st1" x1="612.2" y1="713.5" x2="612.2" y2="818.3"/>
	<line class="st1" x1="1000.2" y1="713.5" x2="1000.2" y2="818.3"/>
	<line class="st1" x1="1410.4" y1="713.5" x2="1410.4" y2="818.3"/>
	<line class="st1" x1="1803.1" y1="713.5" x2="1803.1" y2="818.3"/>
	<line class="st1" x1="2254.1" y1="713.5" x2="2254.1" y2="818.4"/>
	<line class="st1" x1="237.1" y1="926.1" x2="237.1" y2="1035"/>
	<line class="st1" x1="613.4" y1="926" x2="613.4" y2="1034.9"/>
	<line class="st1" x1="1410.4" y1="921.9" x2="1410.4" y2="1026.8"/>
	<line class="st1" x1="1803.1" y1="926" x2="1803.1" y2="1025.8"/>
	<line class="st1" x1="2255.2" y1="926" x2="2255.2" y2="1034.9"/>
	<line class="st1" x1="422.4" y1="818.4" x2="422.4" y2="922.4"/>
	<line class="st1" x1="797.5" y1="818.4" x2="797.5" y2="922.4"/>
	<line class="st1" x1="1185.5" y1="818.4" x2="1185.5" y2="922.4"/>
	<line class="st1" x1="1595.7" y1="818.4" x2="1595.7" y2="922.4"/>
	<line class="st1" x1="1988.4" y1="818.4" x2="1988.4" y2="922.4"/>
	<line class="st1" x1="2439.4" y1="818.4" x2="2439.4" y2="922.4"/>
	<line class="st1" x1="0" y1="423.1" x2="682.9" y2="423.1"/>
	<line class="st1" x1="1999.6" y1="423.1" x2="2737.2" y2="423.1"/>
	<line class="st1" x1="2170.9" y1="528.8" x2="2737.2" y2="528.8"/>
	<line class="st1" x1="0" y1="528.8" x2="308.8" y2="528.8"/>
	<line class="st1" x1="2439.5" y1="304.1" x2="2439.5" y2="423.1"/>
	<line class="st1" x1="2253.5" y1="426.5" x2="2253.5" y2="524.7"/>
	<line class="st1" x1="241.1" y1="426.5" x2="241.1" y2="525.1"/>
	<line class="st1" x1="425.2" y1="308.4" x2="425.2" y2="423.1"/>
	<line class="st1" x1="0" y1="1037.1" x2="666.5" y2="1037.1"/>
	<line class="st1" x1="0" y1="1141.8" x2="568.7" y2="1141.8"/>
	<line class="st1" x1="425.1" y1="1037.1" x2="425.1" y2="1138.9"/>
	<line class="st1" x1="1076.7" y1="1026.8" x2="1866.8" y2="1026.8"/>
	<line class="st1" x1="969.5" y1="1141.8" x2="1836.5" y2="1141.8"/>
	<line class="st1" x1="2232.7" y1="1037.1" x2="2737.2" y2="1037.1"/>
	<line class="st1" x1="2351.5" y1="1141.8" x2="2730.2" y2="1141.8"/>
	<line class="st1" x1="1185.3" y1="1030.2" x2="1185.3" y2="1139.1"/>
	<line class="st1" x1="1596.3" y1="1029.6" x2="1596.3" y2="1138.5"/>
	<line class="st1" x1="2439.2" y1="1033.7" x2="2439.2" y2="1142.6"/>
	<line class="st1" x1="1419.6" y1="1144.6" x2="1419.6" y2="1245.5"/>
	<line class="st1" x1="236.6" y1="1144" x2="236.6" y2="1245.8"/>
	<line class="st1" x1="1003.4" y1="1144" x2="1003.4" y2="1245.8"/>
	<line class="st1" x1="1806.3" y1="1140.5" x2="1806.3" y2="1249.4"/>
</g>
</svg>
